<svg width="144" height="178" viewBox="0 0 144 178" fill="none" xmlns="http://www.w3.org/2000/svg">
<path d="M-7.23486e-06 136.378L63.9403 177.781L63.9403 94.9998L-7.23486e-06 136.378Z" fill="#DBDBDB"/>
<path d="M136.94 41.4512L73 -6.10352e-05L73 82.854L136.94 41.4512Z" fill="#E8E8E8"/>
<path d="M63.8939 87.7239L0 46.2969L-1.44824e-05 129.127L63.8939 87.7239Z" fill="#F3F3F3"/>
<path d="M4.96606 42.5655L32.0045 60.0672L32.0045 25.0154L4.96606 42.5655Z" fill="#E8E8E8"/>
<path d="M41.5898 64.6985L68.6049 82.2001L68.6049 47.1968L41.5898 64.6985Z" fill="#E8E8E8"/>
<path d="M41.5898 18.838L68.6049 36.4124L68.6049 1.38483L41.5898 18.838Z" fill="#E8E8E8"/>
<path d="M97 105.526L124.038 123.003L124.038 87.9998L97 105.526Z" fill="#E8E8E8"/>
<path d="M116 20.5257L143.062 38.0031L143.062 2.99982L116 20.5257Z" fill="#E8E8E8"/>
<path d="M66.7953 41.6959L39.7803 24.1457L39.7803 59.1733L66.7953 41.6959Z" fill="#DEDEDE"/>
<path d="M96.0614 105.526L69 87.9998L69 123.052L96.0614 105.526Z" fill="#E8E8E8"/>
</svg>
