<svg width="34" height="34" viewBox="0 0 34 34" fill="none" xmlns="http://www.w3.org/2000/svg">
<g clip-path="url(#clip0)">
<path d="M29.7759 3.11173H28.2226V0.522949H25.6339V3.11173H8.54792V0.522949H5.95914V3.11173H4.40587C2.26469 3.11173 0.522705 4.85372 0.522705 6.9949V29.7761C0.522705 31.9173 2.26469 33.6593 4.40587 33.6593H29.7759C31.9171 33.6593 33.6591 31.9173 33.6591 29.7761V6.9949C33.6591 4.85372 31.9171 3.11173 29.7759 3.11173ZM31.0703 29.7761C31.0703 30.4899 30.4896 31.0705 29.7759 31.0705H4.40587C3.69215 31.0705 3.11148 30.4899 3.11148 29.7761V12.6902H31.0703V29.7761ZM31.0703 10.1014H3.11148V6.9949C3.11148 6.28117 3.69215 5.70051 4.40587 5.70051H5.95914V8.28928H8.54792V5.70051H25.6339V8.28928H28.2226V5.70051H29.7759C30.4896 5.70051 31.0703 6.28117 31.0703 6.9949V10.1014Z" fill="white"/>
<path d="M8.03018 15.4082H5.44141V17.997H8.03018V15.4082Z" fill="white"/>
<path d="M13.2077 15.4082H10.6189V17.997H13.2077V15.4082Z" fill="white"/>
<path d="M18.3852 15.4082H15.7964V17.997H18.3852V15.4082Z" fill="white"/>
<path d="M23.5629 15.4082H20.9741V17.997H23.5629V15.4082Z" fill="white"/>
<path d="M28.7404 15.4082H26.1516V17.997H28.7404V15.4082Z" fill="white"/>
<path d="M8.03018 20.5859H5.44141V23.1747H8.03018V20.5859Z" fill="white"/>
<path d="M13.2077 20.5859H10.6189V23.1747H13.2077V20.5859Z" fill="white"/>
<path d="M18.3852 20.5859H15.7964V23.1747H18.3852V20.5859Z" fill="white"/>
<path d="M23.5629 20.5859H20.9741V23.1747H23.5629V20.5859Z" fill="white"/>
<path d="M8.03018 25.7637H5.44141V28.3524H8.03018V25.7637Z" fill="white"/>
<path d="M13.2077 25.7637H10.6189V28.3524H13.2077V25.7637Z" fill="white"/>
<path d="M18.3852 25.7637H15.7964V28.3524H18.3852V25.7637Z" fill="white"/>
<path d="M23.5629 25.7637H20.9741V28.3524H23.5629V25.7637Z" fill="white"/>
<path d="M28.7404 20.5859H26.1516V23.1747H28.7404V20.5859Z" fill="white"/>
</g>
<defs>
<clipPath id="clip0">
<rect width="33.1364" height="33.1364" fill="white" transform="translate(0.522705 0.522949)"/>
</clipPath>
</defs>
</svg>
