<?xml version="1.0" encoding="utf-8"?>
<!-- Generator: Adobe Illustrator 16.0.3, SVG Export Plug-In . SVG Version: 6.00 Build 0)  -->
<!DOCTYPE svg PUBLIC "-//W3C//DTD SVG 1.1//EN" "http://www.w3.org/Graphics/SVG/1.1/DTD/svg11.dtd">
<svg version="1.1" id="圖層_1" xmlns="http://www.w3.org/2000/svg" xmlns:xlink="http://www.w3.org/1999/xlink" x="0px" y="0px"
	 width="486.5px" height="72.5px" viewBox="0 7.5 486.5 72.5" enable-background="new 0 7.5 486.5 72.5" xml:space="preserve">
<g>
	<path fill="#454643" d="M329.446,25.686h11.994c0.123,0,0.179-0.048,0.179-0.166v-2.683c0-0.12-0.056-0.17-0.179-0.17h-11.994
		c-0.121,0-0.18-0.052-0.18-0.166c0,0,0-0.953,0-1.439c0-0.156,0-0.271,0-0.293c0-0.096,0.013-0.172,0.021-0.242
		c0.018-0.166,0.013-0.256-0.271-0.272c-1.231-0.068-2.983-0.049-3.518-0.024c-0.036,0.001-0.112,0.005-0.158,0.008
		c-0.005,0-0.013,0-0.018,0c-0.097,0.011-0.138,0.089-0.138,0.168v0.333v1.762c0,0.114-0.055,0.166-0.179,0.166H313.1
		c-0.122,0-0.18,0.05-0.18,0.17v2.68c0,0.12,0.058,0.168,0.18,0.168h11.907c0.124,0,0.179,0.052,0.179,0.169v2.26
		c0,0.117-0.055,0.165-0.179,0.165h-11.922c-0.118,0-0.165,0.059-0.165,0.18v2.717c0,0.057,0,0.138,0,0.212c0,0.078,0,0.156,0,0.214
		v16.799c0,0.116,0.055,0.165,0.178,0.165h3.536c0.125,0,0.181-0.049,0.181-0.165V31.562c0-0.12,0.055-0.168,0.18-0.168h4.036
		c0.097,0,0.123,0.031,0.076,0.075c-0.425,0.214-0.918,0.535-1.382,0.959c-0.157,0.143-0.149,0.179-0.15,0.218
		c-0.007,0.032,0.013,0.089,0.143,0.18c0.746,0.521,1.936,1.318,2.908,2.13c0.11,0.091,0.109,0.149-0.016,0.149h-4.075
		c-0.121,0-0.18,0.057-0.18,0.18v2.661c0,0.118,0.01,0.167,0.137,0.167h6.563c0.123,0,0.178,0.048,0.178,0.167v2.44
		c0,0.117-0.055,0.166-0.178,0.166h-6.521c-0.121,0-0.18,0.052-0.18,0.172v2.683c0,0.119,0.056,0.167,0.18,0.167h6.521
		c0.123,0,0.178,0.05,0.178,0.17v4.343c0,0.119,0.056,0.168,0.182,0.168h3.72c0.123,0,0.182-0.049,0.182-0.168v-4.343
		c0-0.12,0.054-0.17,0.179-0.17h6.456c0.123,0,0.179-0.048,0.179-0.167v-2.683c0-0.12-0.056-0.172-0.179-0.172h-6.46
		c-0.121,0-0.177-0.049-0.177-0.166v-2.44c0-0.119,0.054-0.167,0.177-0.167h6.46c0.123,0,0.179-0.049,0.179-0.167v-2.661
		c0-0.124-0.056-0.18-0.179-0.18h-3.305c-0.091,0-0.126-0.073-0.072-0.123c0.032-0.028,0.04-0.041,0.072-0.067
		c1.116-0.963,2.035-1.998,2.384-2.387c0,0,0.062-0.071,0.081-0.097c0.068-0.092,0.05-0.151-0.044-0.214
		c-0.039-0.028-0.157-0.101-0.157-0.101l-0.898-0.595c-0.013-0.008-0.025-0.016-0.032-0.027c-0.064-0.055-0.035-0.097,0.071-0.097
		h3.497c0.125,0,0.181,0.048,0.181,0.168c0,0,0,10.131,0,11.206c0,1.286,0.12,1.834-1.078,2.489
		c-0.771,0.422-3.103,0.535-3.914,0.562c-0.181,0.004-0.323,0.008-0.395,0.008c-0.081,0-0.135,0.07-0.12,0.15
		c0.02,0.064,0.037,0.143,0.056,0.215c0.025,0.094,0.167,0.546,0.334,1.032c0.14,0.393,0.175,0.491,0.288,0.771
		c0.042,0.108,0.08,0.188,0.117,0.217c0.032,0.027,0.064,0.039,0.204,0.051h0.003c0,0,1.714,0.164,2.83,0.195
		c1.919,0.061,2.986-0.26,3.62-0.639c1.702-1.006,1.903-2.5,1.903-4.994c0-0.978,0-5.572,0-9.25c0-1.263-0.003-4.256-0.003-4.592
		c0-0.013-0.003-0.024-0.003-0.036c-0.01-0.201-0.109-0.378-0.257-0.503c-0.129-0.105-0.268-0.167-0.521-0.167
		c-0.153,0-5.127,0.007-5.127,0.007c-0.06,0-0.144,0-0.222,0c-0.083,0-0.167,0-0.227,0h-5.774c-0.121,0-0.18-0.05-0.18-0.167v-2.259
		C329.27,25.738,329.325,25.686,329.446,25.686z M331.243,31.394c0.103,0,0.128,0.071,0.093,0.146
		c-0.029,0.068-0.062,0.117-0.068,0.133c-0.506,0.901-1.221,2.095-2.001,3.11c-0.013,0.02-0.029,0.039-0.045,0.059
		c-0.068,0.092-0.114,0.147-0.138,0.175c-0.07,0.084-0.103,0.089-0.201,0.089h-2.836c-0.127,0-0.184-0.037-0.214-0.089
		c0,0-0.004,0.003-0.026-0.043c-0.354-0.664-0.791-1.292-1.272-1.909c-0.663-0.843-1.241-1.527-1.241-1.527
		c-0.019-0.02-0.035-0.036-0.04-0.052c-0.024-0.052,0.017-0.091,0.112-0.091H331.243L331.243,31.394z"/>
	<path fill="#454643" d="M376.09,38.165c-0.412-0.276-2.633-1.715-4.864-4.394c-0.609-0.734-1.047-1.437-1.524-2.255
		c-0.019-0.031-0.042-0.084-0.025-0.125c0.022-0.052,0.062-0.071,0.136-0.071h4.021c0.126,0,0.182-0.048,0.182-0.166v-2.536
		c0-0.12-0.056-0.168-0.182-0.168h-4.005c-0.12,0-0.179-0.052-0.179-0.167v-2.535c0-0.117,0.059-0.167,0.179-0.167h4.005
		c0.126,0,0.182-0.05,0.182-0.168v-2.533c0-0.118-0.056-0.17-0.182-0.17h-4.005c-0.12,0-0.179-0.05-0.179-0.167c0,0,0-1.873,0-1.892
		c0-0.165,0.039-0.287,0.026-0.373c-0.017-0.083-0.078-0.13-0.275-0.14c-1.229-0.068-2.978-0.05-3.513-0.026
		c-0.042,0.001-0.133,0.005-0.165,0.01c-0.003,0-0.01,0-0.01,0c-0.094,0.01-0.136,0.087-0.136,0.165v0.042
		c0,0-0.004,0.003-0.004,0.005v2.205c0,0.117-0.055,0.167-0.178,0.167h-4.015c-0.124,0-0.179-0.05-0.179-0.167
		c0,0,0.003-1.892,0.003-1.91c0-0.323,0.149-0.49-0.253-0.511c-1.229-0.071-2.977-0.052-3.509-0.027
		c-0.029,0.001-0.081,0.005-0.123,0.006c-0.021,0.001-0.039,0.001-0.052,0.003c-0.098,0.011-0.14,0.091-0.14,0.167v0.042
		c0,0.006-0.001,0.015-0.001,0.022v2.205c0,0.117-0.059,0.169-0.181,0.169h-3.979c-0.123,0-0.182,0.052-0.182,0.168v1.166
		c0,0.118-0.068,0.147-0.156,0.066l-0.003-0.001c0,0-0.013-0.015-0.035-0.034c-0.029-0.028-0.085-0.075-0.166-0.147
		c-0.661-0.595-1.395-1.132-2.144-1.633c-0.055-0.036-0.11-0.071-0.167-0.105c-1.013-0.65-2.702-1.495-3.124-1.706
		c-0.062-0.028-0.107-0.047-0.143-0.063c-0.1-0.049-0.179-0.024-0.206,0.057c-0.018,0.047-0.029,0.08-0.034,0.101
		c-0.115,0.396-0.354,1.464-0.432,1.829c-0.018,0.076-0.035,0.146-0.045,0.222c-0.013,0.117,0.013,0.147,0.088,0.204
		c0.048,0.033,0.094,0.071,0.167,0.119c0.324,0.212,1.305,0.887,2.235,1.752c0.648,0.6,1.469,1.472,2.016,2.158
		c0.199,0.248,0.656,0.864,0.656,0.864c0.076,0.091,0.159,0.065,0.221-0.013l1.554-1.945c0.013-0.021,0.029-0.036,0.045-0.054
		c0.075-0.078,0.191-0.135,0.292-0.135h3.541c0.122,0,0.181,0.05,0.181,0.169v2.536c0,0.114-0.059,0.166-0.181,0.166h-3.979
		c-0.123,0-0.182,0.05-0.182,0.17v2.534c0,0.117,0.059,0.166,0.182,0.166h3.473c0.125,0,0.177,0.087,0.12,0.191
		c0,0-0.872,1.938-2.343,3.969c-0.796,1.103-1.451,1.91-1.451,1.91c-0.078,0.091-0.123,0.07-0.103-0.047
		c0,0,0.151-0.764,0.215-1.121c0.205-1.167,0.374-2.354,0.468-3.542c0.004-0.07,0.007-0.107-0.006-0.145
		c-0.01-0.039-0.052-0.094-0.114-0.194c0,0-0.254-0.394-0.797-0.882c-0.665-0.593-1.395-1.127-2.144-1.628
		c-0.056-0.036-0.112-0.071-0.169-0.107c-1.167-0.749-2.434-1.354-3.259-1.774c-0.098-0.048-0.152-0.031-0.206,0.057
		c-0.015,0.042-0.036,0.086-0.041,0.107c-0.126,0.403-0.354,1.444-0.444,1.848c-0.022,0.101-0.042,0.2-0.047,0.238
		c-0.015,0.12-0.018,0.152,0.068,0.222c0.039,0.031,0.099,0.076,0.157,0.117c0.354,0.24,1.647,1.127,2.244,1.636
		c0.963,0.819,1.554,1.518,1.813,1.903c0.11,0.159,0.113,0.175,0.088,0.314c-0.017,0.094-0.104,0.482-0.14,0.636
		c-0.039,0.174-0.083,0.354-0.12,0.503c-0.314,1.256-0.69,2.484-1.113,3.692c-0.412,1.179-0.903,2.318-1.438,3.42
		c-0.517,1.07-1.093,2.124-1.744,3.068c-0.203,0.296-0.589,0.791-0.828,1.155c-0.038,0.06-0.056,0.108-0.048,0.151
		c0.002,0.055,0.048,0.094,0.096,0.135c1.055,0.793,2.215,1.263,2.838,1.479c0.032,0.011,0.18,0.059,0.3,0.09
		c0.138,0.038,0.187,0.006,0.27-0.092c0.052-0.059,0.086-0.098,0.187-0.245c0.167-0.231,0.44-0.648,0.718-1.208
		c0.547-1.1,1.021-2.276,1.45-3.461c0.043-0.122,0.092-0.255,0.138-0.396c0.381-1.127,0.693-2.165,0.912-2.917
		c0.012-0.039,0.031-0.091,0.058-0.159c0.04-0.1,0.104-0.104,0.173-0.022c0.105,0.133,0.361,0.423,0.472,0.546
		c0.095,0.112,0.143,0.07,0.263,0.01c0.186-0.094,0.928-0.56,1.278-0.83c0.415-0.323,0.892-0.752,1.044-0.9
		c0.088-0.084,0.155-0.057,0.155,0.062v5.057v0.213c0,2.329,2.022,4.22,4.508,4.22h0.224h8.918c1.021,0,1.55-0.091,1.959-0.257
		c0.467-0.185,0.897-0.46,1.258-0.807c0.513-0.496,0.847-1.109,1.034-1.822c0.098-0.375,0.191-0.792,0.282-1.232
		c0.101-0.465,0.14-0.652,0.156-0.85c0.006-0.095,0.003-0.123-0.075-0.211c-0.411-0.486-1.553-1.403-1.744-1.538
		c-0.081-0.055-0.146-0.055-0.208,0.054c-0.013,0.021-0.055,0.09-0.062,0.105c-0.217,0.412-0.334,0.724-0.817,1.687
		c-0.438,0.859-0.937,1.613-2.338,1.613h-0.947h-6.385h-0.224c-0.833,0-1.488-0.593-1.488-1.349v-0.213v-0.98
		c0-0.119,0.055-0.167,0.178-0.167h7.449h0.224c1.657,0,3-1.269,3-2.822v-0.214v-1.31c0-0.062,0.071-0.099,0.11-0.065
		c0.022,0.02,0.032,0.029,0.058,0.057c0.896,0.98,1.981,1.741,2.436,2.048c0.01,0.008,0.056,0.042,0.11,0.074
		c0.094,0.055,0.152,0.038,0.243,0c0.042-0.018,0.081-0.031,0.091-0.039c0.538-0.256,1.93-1.069,2.77-1.878
		c0.088-0.084,0.11-0.123,0.107-0.178C376.232,38.246,376.178,38.223,376.09,38.165z M361.381,25.579h4.018
		c0.123,0,0.179,0.049,0.179,0.168v2.535c0,0.115-0.056,0.167-0.179,0.167h-4.018c-0.12,0-0.176-0.052-0.176-0.167v-2.535
		C361.205,25.631,361.261,25.579,361.381,25.579z M366.271,38.687c0,0.571-0.412,1.075-1.1,1.075h-5.532
		c-0.119,0-0.175-0.05-0.175-0.17V37.13c0-0.113,0.056-0.165,0.175-0.165h6.45c0.123,0,0.182,0.052,0.182,0.165V38.687z
		 M367.396,34.092h-7.841c-0.098,0-0.146-0.055-0.078-0.156c0.198-0.292,0.655-0.928,0.837-1.182
		c0.299-0.43,0.671-0.994,0.843-1.312c0.059-0.101,0.13-0.12,0.218-0.12h4.611c0.116,0,0.185,0.029,0.23,0.138
		c0.162,0.354,0.33,0.764,0.496,1.117c0.035,0.071,0.068,0.149,0.104,0.217c0.029,0.055,0.052,0.107,0.074,0.159
		c0.065,0.126,0.144,0.274,0.221,0.415c0.091,0.174,0.186,0.334,0.24,0.437c0.035,0.063,0.088,0.164,0.088,0.164
		C367.486,34.043,367.474,34.092,367.396,34.092z"/>
	<path fill="#454643" d="M290.628,20.335c-1.271-0.071-3.08-0.052-3.632-0.026c-0.045,0.001-0.147,0.005-0.182,0.008
		c-0.101,0.013-0.143,0.093-0.143,0.174v0.344v6.598c0,0.117-0.055,0.165-0.18,0.165h-6.711c-0.125,0-0.18,0.05-0.18,0.167v3.115
		c0,0.119,0.055,0.167,0.18,0.167h6.711c0.125,0,0.18,0.052,0.18,0.169v7.141c0,0.118,0.005,0.173-0.115,0.243
		c-0.144,0.087-0.3,0.18-0.656,0.383c-0.499,0.284-1.247,0.7-1.942,1.05c-0.08,0.042-0.162,0.081-0.243,0.12
		c-0.545,0.266-1.093,0.508-1.622,0.724c-1.881,0.769-3.456,1.197-3.456,1.197c-0.017,0.006-0.065,0.027-0.075,0.032
		c-0.063,0.029-0.12,0.101-0.091,0.194c0.042,0.12,0.2,0.558,0.297,0.8c0.451,1.115,1.085,2.35,1.354,2.723
		c0.025,0.035,0.048,0.074,0.09,0.126c0.056,0.063,0.117,0.081,0.23,0.04c0.081-0.029,0.242-0.094,0.357-0.141
		c0.349-0.141,0.846-0.369,1.368-0.643c1.371-0.708,2.542-1.42,3.659-2.215c0.113-0.08,0.24-0.172,0.349-0.256
		c0.086-0.062,0.159-0.119,0.214-0.16c0.062-0.045,0.157-0.118,0.157-0.118c0.103-0.08,0.125-0.053,0.125,0.055v5.757
		c0,0.116,0.057,0.166,0.181,0.166h3.909c0.067,0,0.126-0.053,0.126-0.121c0,0,0-24.131,0-27.147c0-0.182,0-0.285,0-0.305
		C290.888,20.528,291.04,20.358,290.628,20.335z"/>
	<path fill="#454643" d="M309.67,41.242c-0.062-0.057-0.16-0.146-0.22-0.194c-0.797-0.643-1.323-0.926-1.777-1.171
		c0,0-0.041-0.02-0.083-0.039c-0.099-0.045-0.157-0.008-0.185,0.083c-0.018,0.065-0.037,0.122-0.076,0.258
		c-0.164,0.531-0.623,1.937-1.154,2.934c-0.571,1.071-1.336,2.017-3.236,2.017l-2.192,0.008c-0.879,0-1.566-0.621-1.566-1.413
		v-0.216v-8.915c0-0.109,0.008-0.161,0.104-0.224c0.115-0.074,0.302-0.177,0.425-0.25c1.417-0.837,3.185-1.986,5.065-3.462
		c0.071-0.057,0.143-0.113,0.218-0.17c2.09-1.662,3.323-2.92,3.862-3.511c0.219-0.236,0.281-0.322,0.335-0.391
		c0.066-0.083,0.07-0.216,0.029-0.31c-0.011-0.018-0.465-0.921-1.292-2.021c-0.438-0.585-0.908-1.136-0.947-1.177
		c-0.055-0.054-0.084-0.076-0.147-0.084c-0.057-0.01-0.15-0.008-0.227,0.078c-0.188,0.209-0.258,0.282-0.682,0.769
		c-0.563,0.646-1.351,1.534-1.953,2.173c-2.917,3.068-4.611,4.212-4.611,4.212c-0.098,0.075-0.179,0.036-0.179-0.081
		c0,0,0-7.283,0-8.875c0-0.195,0-0.305,0-0.305c0-0.022,0-0.039,0-0.062c0.005-0.099,0.021-0.178,0.026-0.245
		c0.01-0.135-0.026-0.206-0.287-0.222c-1.273-0.07-3.083-0.049-3.631-0.026c-0.025,0-0.064,0-0.104,0.003
		c-0.029,0.002-0.059,0.005-0.073,0.007c-0.003,0-0.005,0-0.005,0c-0.104,0.011-0.144,0.091-0.144,0.173v0.686v8.963
		c0,0.059,0,0.138,0,0.214c0,0.078,0,0.155,0,0.212v13.266v0.214c0,2.441,2.122,4.439,4.73,4.439h1.98h1.997
		c0.96,0,1.721-0.104,2.273-0.309c0.029-0.01,0.055-0.02,0.081-0.027c0.634-0.254,1.216-0.631,1.706-1.101
		c0.693-0.669,1.147-1.501,1.402-2.47c0.133-0.51,0.258-1.071,0.384-1.668c0.068-0.322,0.135-0.753,0.186-1.1
		c0.02-0.146,0.048-0.331,0.058-0.445C309.772,41.359,309.771,41.331,309.67,41.242z"/>
	<path fill="#454643" d="M407.23,44.861c-0.064-0.012-0.158-0.035-0.21-0.045c-0.422-0.091-1.178-0.229-2.092-0.447
		c-0.474-0.11-1.178-0.289-1.706-0.467c-0.233-0.08-0.415-0.141-0.558-0.206c-0.088-0.038-0.11-0.076-0.062-0.138
		c0.032-0.043,0.074-0.076,0.116-0.113c0.62-0.535,1.298-1.158,1.804-1.648c0.302-0.293,0.72-0.756,0.749-0.795
		c0.059-0.079,0.077-0.099-0.022-0.196c-0.104-0.108-0.564-0.537-1.074-0.909c-0.499-0.367-1.189-0.854-1.417-0.962
		c-0.106-0.048-0.143-0.053-0.214,0.031c-0.292,0.396-1.193,1.492-2.231,2.517c-0.285,0.282-0.531,0.48-0.687,0.613
		c-0.091,0.078-0.159,0.068-0.26,0c-0.071-0.046-0.185-0.113-0.302-0.188c-0.985-0.648-1.926-1.505-2.77-2.379
		c-0.042-0.041-0.577-0.634-0.771-0.848c-0.094-0.107-0.039-0.166,0.084-0.166h8.525h2.371c0.123,0,0.175-0.05,0.175-0.168v-2.705
		c0-0.117-0.052-0.168-0.175-0.168h-2.371h-2.315c-0.123,0-0.178-0.052-0.178-0.169v-1.631c0-0.117,0.055-0.169,0.178-0.169h2.315
		h2.371c0.123,0,0.175-0.052,0.175-0.17v-2.701c0-0.12-0.052-0.17-0.175-0.17h-2.371h-2.315c-0.123,0-0.178-0.05-0.178-0.166
		c0,0,0-0.812,0-0.843c0-0.138,0.025-0.246,0.025-0.327c-0.003-0.098-0.055-0.152-0.269-0.167c-1.188-0.065-2.88-0.047-3.396-0.024
		c-0.042,0.003-0.137,0.006-0.169,0.01c-0.022,0.003-0.042,0.01-0.059,0.02c-0.052,0.029-0.074,0.086-0.074,0.143v0.029
		c0,0.003,0,0.006,0,0.008c0,0.162,0,1.153,0,1.153c0,0.117-0.055,0.167-0.179,0.167h-4.89c-0.127,0-0.182-0.05-0.182-0.167
		c0,0,0-0.811,0-0.84c0-0.139,0.029-0.25,0.029-0.328c-0.007-0.101-0.056-0.154-0.272-0.168c-1.188-0.065-2.877-0.045-3.396-0.024
		c-0.039,0.005-0.136,0.008-0.165,0.008c-0.032,0.005-0.059,0.02-0.078,0.032c-0.035,0.033-0.055,0.081-0.055,0.13v0.321
		c0,0.344,0,0.869,0,0.869c0,0.117-0.059,0.167-0.182,0.167h-4.238c-0.124,0-0.176-0.05-0.172-0.167c0,0,0-0.068,0-0.101
		c0.003-0.178,0.048-1.433,0.052-1.66c0.006-0.059,0.006-0.094,0.01-0.18c0.006-0.155,0.071-0.155,0.197-0.155h18.929h0.224
		c1.998,0,3.405-1.26,3.405-3.125v-0.216v-3.269V21.38c0-0.389-0.331-0.707-0.743-0.707h-0.221c0,0-24.651,0-24.717,0h-0.554
		c-0.124,0-0.179,0.052-0.186,0.17c0,0-0.298,9.225-0.454,12.869c-0.077,1.732-0.143,3.396-0.282,5.161
		c-0.148,1.896-0.512,3.961-1.138,5.624c-0.461,1.231-0.97,2.119-1.161,2.46c-0.059,0.099-0.035,0.143,0.02,0.211
		c0.056,0.064,0.489,0.619,1.349,1.31c0.114,0.093,0.137,0.103,0.159,0.118c0.059,0.031,0.13,0.063,0.214-0.035
		c0.48-0.55,1.632-1.811,2.546-3.699c0.788-1.624,1.485-4.125,1.764-6.004c0.017-0.112,0.023-0.151,0.029-0.19
		c0.029-0.11,0.071-0.146,0.198-0.146h1.268c0.13,0,0.182,0.05,0.182,0.168v5.896c0,0.117-0.025,0.149-0.143,0.166
		c-0.467,0.068-1.852,0.273-2.033,0.301c-0.159,0.026-0.149,0.132-0.136,0.228c0.091,0.558,0.668,2.721,0.759,2.985
		c0.052,0.146,0.094,0.174,0.266,0.157c0.37-0.034,0.823-0.093,1.145-0.144c1.368-0.199,2.61-0.463,3.963-0.784
		c2.831-0.668,5.221-1.485,5.812-1.699c0.025-0.01,0.097-0.036,0.116-0.047c0.052-0.034,0.062-0.073,0.068-0.154
		c0.029-0.341,0.049-1.213-0.065-2.202c-0.009-0.082-0.067-0.139-0.197-0.113c-0.133,0.029-0.246,0.049-0.393,0.078
		c-1.063,0.223-3.379,0.684-4.975,0.875c-0.025,0.004-0.074,0.012-0.146,0.018c-0.081,0.009-0.149-0.037-0.149-0.141
		c0-0.113,0-0.422,0-0.434c0.01-1.366,0-4.987,0-4.987c0-0.119,0.059-0.17,0.182-0.17h2.426c0.113,0,0.136,0.026,0.201,0.123
		c0.415,0.718,0.904,1.459,1.4,2.118c0.085,0.113,0.162,0.219,0.24,0.316c0.992,1.241,2.107,2.307,3.396,3.306
		c3.168,2.463,6.842,3.604,8.217,3.917c0.11,0.024,0.295,0.063,0.351,0.071c0.078,0.015,0.13,0.004,0.162-0.034
		c0.071-0.083,0.551-0.72,0.872-1.235c0.383-0.625,0.743-1.346,0.915-1.819c0.016-0.046,0.055-0.149,0.077-0.218
		C407.37,44.961,407.325,44.885,407.23,44.861z M384.136,24.517l0.013-0.723c0.007-0.117,0.059-0.168,0.185-0.168h18.335
		c0.127,0,0.182,0.052,0.182,0.168c0,0,0,0.206,0,0.318c0,0.739-0.545,1.127-1.238,1.127c-0.198,0-17.313,0-17.313,0
		c-0.123,0-0.172-0.047-0.172-0.166C384.132,24.874,384.132,24.716,384.136,24.517z M388.514,35.304
		c0,0.117-0.056,0.169-0.182,0.169h-4.473c-0.123,0-0.172-0.049-0.162-0.166c0.033-0.46,0.056-0.799,0.088-1.261
		c0.007-0.101,0.013-0.198,0.017-0.286c0.006-0.084,0.006-0.084,0.006-0.084c0.007-0.097,0.062-0.172,0.188-0.172h4.336
		c0.126,0,0.185,0.052,0.185,0.169v1.631H388.514z M392.632,35.473c-0.123,0-0.179-0.052-0.179-0.169v-1.631
		c0-0.117,0.056-0.169,0.179-0.169h4.89c0.124,0,0.179,0.052,0.179,0.169v1.631c0,0.117-0.055,0.169-0.179,0.169H392.632z"/>
	<path fill="#454643" d="M429.71,23.562c0.052-0.117,0.088-0.125,0.208-0.125h9.66c0.127,0,0.182-0.052,0.182-0.167v-2.082
		c0-0.117-0.055-0.169-0.182-0.169h-8.889c-0.071,0-0.104-0.02-0.078-0.126c0.026-0.108,0.081-0.303,0.081-0.306
		c0.014-0.089,0.01-0.131-0.101-0.169c-0.379-0.122-0.791-0.251-1.65-0.43c-0.862-0.178-1.466-0.253-1.683-0.272
		c-0.075-0.007-0.133,0.016-0.149,0.113c-0.02,0.094-0.032,0.172-0.074,0.381c-0.091,0.479-0.143,1.422-0.938,3.88
		c-0.795,2.456-1.618,3.914-1.647,3.976c-0.029,0.065-0.042,0.107,0.02,0.175c0.175,0.191,0.402,0.434,0.704,0.71
		c0.201,0.18,0.389,0.367,0.603,0.525c0.052,0.034,0.091,0.052,0.137,0.045c0.032-0.006,0.052-0.016,0.13-0.117
		c0.067-0.08,0.658-0.859,1.073-1.42c0.016-0.026,0.052-0.01,0.052,0.039c0,0.047,0,4.047,0,4.047c0,0.117,0.055,0.167,0.182,0.167
		h5.13h5.315c1.083,0,1.965-0.835,1.965-1.858v-0.212v-2.377v-0.214c0-0.379-0.324-0.691-0.727-0.691h-0.224c0,0-10.581,0-10.613,0
		c-0.033,0-0.088-0.013-0.039-0.092c0.288-0.481,0.609-1.01,0.846-1.535C429.454,24.259,429.552,23.906,429.71,23.562z
		 M435.823,28.809c0-0.12,0.055-0.17,0.178-0.17h0.792c0.123,0,0.22,0.097,0.22,0.216v0.602c0,0.553-0.512,1.007-1.096,1.013
		c0.026,0.01,0.052,0.01,0.084,0.01l-0.094-0.006c0.003,0,0.01-0.003,0.013-0.003c-0.067-0.02-0.097-0.068-0.097-0.156V28.809
		L435.823,28.809z M432.966,28.809c0-0.12,0.056-0.17,0.179-0.17h0.901c0.123,0,0.179,0.05,0.179,0.17v1.504
		c0,0.117-0.056,0.166-0.179,0.166h-0.901c-0.123,0-0.179-0.049-0.179-0.166V28.809z M430.083,28.809c0-0.12,0.056-0.17,0.179-0.17
		h0.882c0.126,0,0.182,0.05,0.182,0.17v1.504c0,0.117-0.056,0.166-0.182,0.166h-0.882c-0.123,0-0.179-0.049-0.179-0.166V28.809z"/>
	<path fill="#454643" d="M424.755,29.678h-3.104c-0.123,0-0.175-0.05-0.175-0.167v-1.002c0-0.115,0.052-0.167,0.175-0.167
		c0,0,0.289,0,0.306,0c1.523-0.019,2.756-1.23,2.824-2.748c0-0.041,0.003-0.083,0.003-0.125c0-0.062-0.003-0.117-0.003-0.173
		c0-0.269,0-0.61,0-0.61c0-0.381-0.324-0.686-0.724-0.686h-0.22h-2.187c-0.123,0-0.175-0.05-0.175-0.169v-1.047
		c0-0.117,0.052-0.167,0.175-0.167h3.104c0.12,0,0.182-0.048,0.182-0.168v-2.081c0-0.117-0.062-0.168-0.182-0.168h-8.671
		c-0.062,0-0.143,0-0.224,0s-0.162,0-0.228,0h-3.288c-0.126,0-0.182,0.052-0.182,0.168v2.035c0,0.062,0,0.138,0,0.214
		c0,0.08,0,0.157,0,0.214v6.677c0,0.06,0,0.136,0,0.212c0,0.08,0,0.156,0,0.216v2.035c0,0.117,0.056,0.168,0.182,0.168h3.288
		c0.065,0,0.146,0,0.228,0c0.084,0,0.162,0,0.224,0h8.671c0.12,0,0.182-0.052,0.182-0.168v-2.127
		C424.937,29.73,424.875,29.678,424.755,29.678z M415.993,22.784c0-0.117,0.059-0.167,0.182-0.167h2.14
		c0.124,0,0.225,0.05,0.225,0.167v1.047c0,0.119-0.101,0.169-0.225,0.169h-2.14c-0.123,0-0.182-0.05-0.182-0.169V22.784z
		 M418.539,29.511c0,0.117-0.056,0.167-0.179,0.167h-2.186c-0.123,0-0.182-0.05-0.182-0.167v-1.002c0-0.115,0.059-0.167,0.182-0.167
		h2.186c0.123,0,0.179,0.052,0.179,0.167V29.511z M420.234,26.846h-4.06c-0.123,0-0.182-0.052-0.182-0.169v-0.929
		c0-0.115,0.059-0.168,0.182-0.168h4.919c0.123,0,0.224,0.097,0.224,0.216v0.013C421.317,26.38,420.835,26.846,420.234,26.846z"/>
	<path fill="#454643" d="M440.953,43.805c0.007-0.091,0.003-0.125-0.068-0.207c-0.408-0.464-1.414-1.33-1.631-1.436
		c-0.088-0.042-0.155-0.047-0.198,0.057c-0.182,0.464-0.334,0.867-0.813,1.81c-0.412,0.81-0.879,1.515-2.195,1.515h-0.208h-5.444
		h-0.471c-0.428,0-0.797-0.172-1.034-0.435c-0.175-0.192-0.23-0.438-0.243-0.626c-0.003-0.084-0.013-0.152,0.11-0.152
		c0.101,0,0.467,0,0.516,0c0.013,0,0.017,0,0.013,0c0.188,0,3.561,0,3.561,0h0.224c3.159,0,4.761-1.602,4.761-4.518v-0.211v-5.608
		v-0.217c0-0.366-0.331-0.668-0.736-0.668h-0.22h-22.509c-0.123,0-0.179,0.052-0.179,0.167v10.878c0,0.116,0.056,0.168,0.179,0.172
		l0.016,0.001l0.017,0.002c0.059,0,0.133,0,0.211,0c0.007,0.003,0.013,0.003,0.013,0.003h0.272h2.261c0,0,0.129,0,0.148,0
		c0.056,0,0.091,0.029,0.088,0.074c-0.007,0.065-0.101,0.123-0.12,0.137c-0.337,0.24-1.29,0.852-2.328,1.232
		c-0.827,0.301-2.102,0.587-3.464,0.813c-0.185,0.031-0.453,0.078-0.648,0.108c-0.101,0.019-0.175,0.041-0.162,0.135
		c0.01,0.063,0.081,0.156,0.11,0.196c0.059,0.079,0.279,0.344,0.328,0.396c0.291,0.342,0.7,0.773,1.057,1.094
		c0.094,0.082,0.143,0.09,0.211,0.09c0.11,0,0.464-0.018,1.142-0.102c1.692-0.211,5.143-0.963,8.629-3.617
		c0.191-0.148,0.39-0.302,0.581-0.461c0.038-0.031,0.097-0.066,0.119-0.074c0.023-0.012,0.071-0.021,0.114-0.021
		c0.327,0,0.985,0,1.307,0c0.003,0,0.013,0,0.016,0c0.104,0.004,0.149,0.074,0.163,0.169c0.003,0.019,0.003,0.05,0.003,0.069
		c0.032,2.153,1.913,3.896,4.222,3.896h0.211h7.695c0.117,0,0.305-0.006,0.422-0.014c0,0,1.031-0.07,1.414-0.227
		c0.44-0.168,0.843-0.432,1.184-0.757c0.477-0.462,0.791-1.038,0.963-1.706c0.094-0.352,0.182-0.742,0.269-1.152
		C440.917,44.172,440.946,43.926,440.953,43.805z M418.253,35.567c0-0.117,0.056-0.168,0.182-0.168h15.147
		c0.123,0,0.179,0.052,0.179,0.168v0.706c0,0.118-0.056,0.17-0.179,0.17h-15.147c-0.126,0-0.182-0.052-0.182-0.17V35.567z
		 M418.253,38.252c0-0.117,0.056-0.167,0.182-0.167h15.147c0.123,0,0.179,0.05,0.179,0.167v0.708c0,0.119-0.056,0.167-0.179,0.167
		h-15.147c-0.126,0-0.182-0.049-0.182-0.167V38.252z M418.435,41.873c-0.126,0-0.182-0.05-0.182-0.167V40.94
		c0-0.12,0.056-0.168,0.182-0.168h14.988c0.104,0,0.172,0.062,0.166,0.134c-0.007,0.034-0.014,0.063-0.029,0.1
		c-0.279,0.586-0.898,0.869-2.056,0.869h-0.225h-12.845V41.873z"/>
	<path fill="#454643" d="M472.036,22.484h-0.225h-4.747c-0.123,0-0.179-0.05-0.179-0.168c0,0,0-0.826,0-1.278
		c0-0.167,0-0.268,0-0.284c0-0.14,0.029-0.247,0.026-0.328c-0.003-0.099-0.052-0.152-0.27-0.167
		c-1.189-0.066-2.879-0.047-3.395-0.026c-0.043,0.001-0.14,0.005-0.169,0.01c-0.026,0.003-0.042,0.008-0.059,0.02
		c-0.055,0.027-0.074,0.086-0.074,0.144v0.033v0.285c0,0.532,0,1.591,0,1.591c0,0.12-0.056,0.168-0.182,0.168h-5.402
		c-0.124,0-0.179,0.053-0.179,0.167v0.477c0,0.06,0,0.723,0,0.804c0,0.075,0,0.152,0,0.211v0.039c0,0.101-0.022,0.214-0.152,0.113
		c-1.112-0.757-2.247-1.477-3.464-2.1c-0.091-0.06-0.101-0.07-0.062-0.166c0.143-0.292,0.228-0.436,0.295-0.592
		c0.072-0.152,0.081-0.182-0.052-0.253c-0.555-0.305-2.704-1.106-3.59-1.321c-0.123-0.028-0.165-0.018-0.191,0.096
		c0,0-0.453,2.273-2.522,6.622c-2.056,4.314-4.051,6.357-4.051,6.357c-0.074,0.088-0.081,0.12-0.025,0.226
		c0,0,0.393,0.759,0.57,1.047c0.059,0.094,0.214,0.357,0.309,0.513c0.077,0.129,0.165,0.112,0.266,0.026
		c0.104-0.088,1.229-0.993,2.146-2.239c0.056-0.076,0.127-0.059,0.127,0.047V44.84c0,0.119-0.036,0.166-0.159,0.18h-0.003
		l-1.278,0.111h-0.003c-0.123,0.012-0.12,0.056-0.113,0.186c0.003,0.143,0.049,0.794,0.133,1.592c0.084,0.771,0.218,1.4,0.243,1.518
		c0.029,0.111,0.056,0.137,0.175,0.117c0,0,0.759-0.125,1.223-0.218c1.939-0.39,3.847-0.877,5.747-1.431
		c0.094-0.027,0.194-0.057,0.301-0.09c0.13-0.041,0.272-0.088,0.415-0.135c0.393-0.125,0.717-0.236,1.106-0.381
		c0.11-0.033,0.143-0.005,0.175,0.102l0.643,2.096c0.003,0.008,0.003,0.011,0.006,0.018c0.036,0.1,0.062,0.089,0.188,0.074
		c0.191-0.025,1.258-0.327,1.647-0.467c0.82-0.293,1.073-0.432,1.375-0.58c0.11-0.053,0.094-0.129,0.062-0.203
		c-0.032-0.078-0.081-0.189-0.152-0.365c-0.749-1.742-1.729-3.441-2.899-4.87c-0.094-0.114-0.204-0.276-0.292-0.395
		c-0.059-0.079-0.045-0.106,0.026-0.138c0.025-0.01,0.067-0.021,0.113-0.036c1.248-0.391,2.146-1.443,2.146-2.682v-0.216v-7.846
		v-0.214c0-0.392-0.334-0.711-0.746-0.711h-0.227h-7.565c-0.078,0-0.127-0.018-0.068-0.109c0.26-0.355,0.665-0.892,0.957-1.326
		c0.055-0.078,0.104-0.156,0.159-0.233c0.062-0.091,0.148-0.073,0.271-0.073h6.612c0.127,0,0.182,0.05,0.182,0.167v0.486
		c0,0.117,0.056,0.169,0.179,0.169h1.738c0.123,0,0.178,0.05,0.178,0.167l-0.045,18.795c0,0.116,0.101,0.21,0.224,0.21h3.401h0.228
		l0,0c0-0.001,0.101-0.001,0.221-0.001h5.292h0.227c1.8,0,3.27-1.384,3.27-3.079v-0.214v-5.021V39.58
		c0-0.394-0.338-0.718-0.756-0.718h-0.224h-7.828c-0.123,0-0.179-0.05-0.179-0.167v-1.341c0-0.117,0.056-0.169,0.179-0.169h3.531
		h0.224c1.803,0,3.266-1.378,3.266-3.076v-0.214v-5.074c0-0.115,0.059-0.167,0.182-0.167h2.127c0.12,0,0.179-0.05,0.179-0.168
		v-2.063v-3.004v-0.214C472.795,22.807,472.457,22.484,472.036,22.484z M450.387,32.736c0-0.12,0.055-0.172,0.178-0.172h3.344
		c0.123,0,0.182,0.052,0.182,0.172v1.949c0,0.117-0.059,0.168-0.182,0.168h-3.344c-0.123,0-0.178-0.052-0.178-0.168V32.736z
		 M450.387,36.889c0-0.119,0.055-0.169,0.178-0.169h3.344c0.123,0,0.182,0.05,0.182,0.169v1.921c0,0.12-0.059,0.172-0.182,0.172
		h-3.344c-0.123,0-0.178-0.052-0.178-0.172V36.889z M450.387,41.862c0-0.12,0.055-0.169,0.178-0.169h1.729
		c0.124,0,0.13,0.031,0.198,0.128c0.029,0.047,0.098,0.138,0.126,0.184c0.27,0.415,0.493,0.845,0.727,1.274
		c0.065,0.117,0.133,0.253,0.198,0.373c0.049,0.094,0.068,0.154-0.081,0.197c-0.901,0.267-2.047,0.504-2.941,0.633
		c-0.113,0.017-0.133-0.031-0.133-0.145V41.862z M454.654,25.837h-2.938c-0.148,0-0.162-0.029-0.101-0.151
		c0.27-0.486,0.591-1.088,0.827-1.539c0.071-0.122,0.13-0.143,0.25-0.06c0,0,0.561,0.418,1.037,0.801
		c0.162,0.128,0.331,0.26,0.49,0.394c0.162,0.133,0.321,0.271,0.477,0.409C454.804,25.778,454.797,25.837,454.654,25.837z
		 M463.29,41.883h4.809c0.123,0,0.179,0.051,0.179,0.167v2.838c0,0.118-0.056,0.169-0.179,0.169h-4.809
		c-0.123,0-0.179-0.051-0.179-0.169V42.05C463.111,41.936,463.167,41.883,463.29,41.883z M466.49,34.097
		c0,0.117-0.052,0.168-0.178,0.17l-3.026,0.003c-0.123,0-0.178-0.049-0.178-0.169v-2.954c0-0.117,0.055-0.168,0.178-0.168h3.026
		c0.126,0,0.178,0.052,0.178,0.168V34.097z M469.211,27.833c0,0.107-0.039,0.162-0.175,0.162c-0.201,0-7.521,0-7.521,0
		s-0.366,0-0.509,0c-0.13,0-0.179-0.05-0.179-0.162c0-0.124,0-2.16,0-2.16c0-0.115,0.056-0.166,0.179-0.166h8.022
		c0.123,0,0.182,0.05,0.182,0.166C469.211,25.673,469.211,27.739,469.211,27.833z"/>
	<path fill="#454643" d="M272.512,34.93c-0.416,0-22.055,0-22.168,0s-0.179,0.081-0.179,0.167c0,0.088,0,13.147,0,13.263
		s0.076,0.167,0.179,0.167c0.104,0,18.173,0,18.173,0h0.803c2.171,0,3.934-1.622,3.934-3.616v-0.213c0,0,0-8.68,0-9.062
		C273.252,35.249,272.928,34.93,272.512,34.93z M268.942,44.325c0,0.62-0.446,1.083-1.183,1.083h-13.103
		c-0.122,0-0.181-0.051-0.181-0.167v-6.979c0-0.12,0.057-0.17,0.181-0.17h14.104c0.123,0,0.181,0.05,0.181,0.17V44.325z"/>
	<path fill="#454643" d="M277.547,32.065c-1.344-1.647-5.534-6.577-7.315-8.358c-0.043-0.045-0.154-0.151-0.195-0.193
		c-0.085-0.086-0.163-0.084-0.248-0.018c-0.057,0.041-0.133,0.104-0.201,0.166c-0.402,0.391-1.602,1.578-1.742,1.72
		c-0.113,0.117-0.068,0.185-0.014,0.269c0.153,0.227,1.079,1.407,1.84,2.403c0.406,0.535,0.658,0.879,0.708,0.95
		c0.068,0.097,0.129,0.18,0.148,0.209c0.046,0.063,0.021,0.167-0.095,0.167c0,0-14.782,0-14.926,0c-0.076,0-0.163-0.091-0.077-0.191
		c0.067-0.088,0.303-0.35,0.666-0.778c1.359-1.602,4.157-4.936,5.334-6.353c0.149-0.182,0.268-0.325,0.342-0.412
		c0.08-0.099,0.123-0.224-0.067-0.323c-0.114-0.058-0.772-0.292-1.825-0.702c-1.051-0.412-1.633-0.57-1.748-0.603
		c-0.265-0.078-0.32-0.045-0.455,0.101c-0.063,0.066-0.16,0.168-0.338,0.37c-1.281,1.472-5.629,6.596-7.09,8.279
		c-0.252,0.295-0.361,0.418-0.422,0.477c-0.094,0.094-0.115,0.136-0.297,0.136c-0.291,0-2.379,0-2.379,0
		c-0.123,0-0.197,0.02-0.206,0.168c-0.007,0.151,0.009,3.05,0.009,3.165c0,0.113,0.047,0.178,0.215,0.178c2.812,0,3.995,0,25.979,0
		c0.153,0,0.136,0.007,0.206,0.065c0.329,0.386,1.012,1.378,1.474,1.926c0.105,0.125,0.165,0.189,0.311,0.084
		c0.422-0.328,1.853-1.742,2.409-2.507C277.683,32.271,277.667,32.214,277.547,32.065z"/>
	<path fill="#454643" d="M249.338,58.547c0-0.045-0.039-0.084-0.086-0.084h-2.438c-0.044,0-0.083-0.036-0.083-0.088v-1.262
		c0-0.043,0.039-0.084,0.083-0.084h6.865c0.046,0,0.085,0.039,0.085,0.084v1.262c0,0.051-0.039,0.088-0.085,0.088h-2.437
		c-0.046,0-0.086,0.035-0.086,0.084v7.484c0,0.045-0.036,0.088-0.083,0.088h-1.655c-0.046,0-0.082-0.041-0.082-0.088v-7.484H249.338
		z"/>
	<path fill="#454643" d="M256.355,57.107c0.018-0.039,0.069-0.078,0.115-0.078h1.889c0.047,0,0.1,0.037,0.115,0.078l3.506,8.932
		c0.016,0.041-0.005,0.078-0.053,0.078h-1.852c-0.045,0-0.098-0.034-0.111-0.078l-0.723-1.926c-0.017-0.044-0.066-0.083-0.113-0.083
		h-3.516c-0.049,0-0.1,0.039-0.115,0.083l-0.734,1.926c-0.018,0.041-0.069,0.078-0.113,0.078h-1.721
		c-0.047,0-0.071-0.034-0.054-0.078L256.355,57.107z M257.418,58.932c-0.017-0.041-0.033-0.078-0.043-0.078
		c-0.008,0-0.025,0.033-0.039,0.078l-1.26,3.591c-0.016,0.042,0.009,0.077,0.055,0.077h2.489c0.048,0,0.071-0.031,0.057-0.077
		L257.418,58.932z"/>
	<path fill="#454643" d="M262.928,57.113c0-0.042,0.04-0.084,0.086-0.084h1.652c0.048,0,0.086,0.039,0.086,0.084v8.918
		c0,0.045-0.038,0.086-0.086,0.086h-1.652c-0.046,0-0.086-0.039-0.086-0.086V57.113z"/>
	<path fill="#454643" d="M273.75,57.113c0-0.042,0.036-0.084,0.082-0.084h5.196c0.049,0,0.088,0.039,0.088,0.084v1.264
		c0,0.05-0.039,0.086-0.088,0.086h-3.372c-0.045,0-0.085,0.037-0.085,0.084v2.07c0,0.047,0.039,0.084,0.085,0.084h3.074
		c0.047,0,0.084,0.039,0.084,0.088v1.264c0,0.045-0.037,0.082-0.084,0.082h-3.074c-0.045,0-0.085,0.037-0.085,0.086v2.384
		c0,0.042,0.039,0.084,0.085,0.084h3.398c0.049,0,0.084,0.036,0.084,0.083v1.263c0,0.046-0.035,0.088-0.084,0.088h-5.223
		c-0.046,0-0.082-0.039-0.082-0.088V57.113z"/>
	<path fill="#454643" d="M268.756,57.032h-0.084h-2.138h-0.084v0.083v8.916v0.088h0.084h1.654h0.085v-0.088v-3.278
		c0-0.048,0.037-0.085,0.083-0.085h0.685c1.954,0,3.502-0.767,3.502-2.891C272.545,57.604,270.736,57.032,268.756,57.032z
		 M270.623,60.077c-0.049,0.444-0.264,0.733-0.572,0.913c-0.001,0-0.001,0-0.004,0c-0.073,0.044-0.155,0.08-0.241,0.111
		c-0.011,0.004-0.022,0.007-0.032,0.009c-0.077,0.027-0.158,0.047-0.243,0.067c-0.029,0.009-0.066,0.01-0.098,0.016
		c-0.065,0.01-0.131,0.022-0.199,0.029c-0.104,0.01-0.21,0.016-0.32,0.016h-0.086h-0.469c-0.047,0-0.084-0.037-0.084-0.088v-2.604
		c0-0.045,0.037-0.084,0.084-0.084h0.554c0.937,0,1.729,0.364,1.729,1.416C270.644,59.951,270.631,60.013,270.623,60.077z"/>
	<path fill="#454643" d="M280.732,57.113c0-0.042,0.041-0.084,0.086-0.084h1.654c0.045,0,0.083,0.039,0.083,0.084v8.918
		c0,0.045-0.038,0.086-0.083,0.086h-1.654c-0.045,0-0.086-0.039-0.086-0.086V57.113z"/>
	<path fill="#454643" d="M287.612,57.113c0-0.042,0.039-0.084,0.085-0.084h2.07c0.049,0,0.102,0.033,0.121,0.076l3.389,6.643
		c0.023,0.043,0.044,0.074,0.053,0.074c0.006,0,0.013-0.035,0.013-0.08v-6.629c0-0.042,0.035-0.084,0.083-0.084h1.577
		c0.047,0,0.084,0.039,0.084,0.084v8.918c0,0.045-0.037,0.086-0.084,0.086h-2.055c-0.05,0-0.102-0.034-0.124-0.076l-3.402-6.645
		c-0.021-0.039-0.045-0.074-0.052-0.074c-0.008,0-0.013,0.035-0.013,0.086v6.623c0,0.045-0.036,0.086-0.083,0.086h-1.577
		c-0.046,0-0.085-0.039-0.085-0.086V57.113z"/>
	<path fill="#454643" d="M299.354,57.107c0.017-0.039,0.07-0.078,0.114-0.078h1.891c0.047,0,0.1,0.037,0.116,0.078l3.506,8.932
		c0.016,0.041-0.007,0.078-0.056,0.078h-1.849c-0.045,0-0.097-0.034-0.116-0.078l-0.72-1.926c-0.017-0.044-0.068-0.083-0.115-0.083
		h-3.517c-0.049,0-0.098,0.039-0.115,0.083l-0.733,1.926c-0.016,0.041-0.069,0.078-0.115,0.078h-1.719
		c-0.047,0-0.071-0.034-0.055-0.078L299.354,57.107z M300.415,58.932c-0.016-0.041-0.032-0.078-0.042-0.078
		c-0.007,0-0.026,0.033-0.039,0.078l-1.258,3.591c-0.017,0.042,0.01,0.077,0.057,0.077h2.487c0.047,0,0.071-0.031,0.057-0.077
		L300.415,58.932z"/>
	<path fill="#454643" d="M305.766,57.113c0-0.042,0.037-0.084,0.081-0.084h2.072c0.049,0,0.101,0.033,0.123,0.076l3.389,6.643
		c0.021,0.043,0.043,0.074,0.049,0.074c0.009,0,0.017-0.035,0.017-0.08v-6.629c0-0.042,0.035-0.084,0.081-0.084h1.579
		c0.046,0,0.084,0.039,0.084,0.084v8.918c0,0.045-0.038,0.086-0.084,0.086h-2.06c-0.045,0-0.1-0.034-0.123-0.076l-3.398-6.645
		c-0.02-0.039-0.045-0.074-0.052-0.074s-0.013,0.035-0.013,0.086v6.623c0,0.045-0.039,0.086-0.085,0.086h-1.575
		c-0.046,0-0.085-0.039-0.085-0.086V57.113L305.766,57.113z"/>
	<path fill="#454643" d="M326.597,57.107c0.015-0.039,0.066-0.078,0.114-0.078h1.891c0.044,0,0.096,0.037,0.114,0.078l3.505,8.932
		c0.02,0.041-0.005,0.078-0.052,0.078h-1.852c-0.045,0-0.096-0.034-0.112-0.078l-0.721-1.926c-0.017-0.044-0.068-0.083-0.115-0.083
		h-3.518c-0.045,0-0.095,0.039-0.113,0.083l-0.736,1.926c-0.016,0.041-0.064,0.078-0.113,0.078h-1.717
		c-0.047,0-0.069-0.034-0.054-0.078L326.597,57.107z M327.658,58.932c-0.017-0.041-0.035-0.078-0.042-0.078
		c-0.008,0-0.026,0.033-0.042,0.078l-1.259,3.591c-0.016,0.042,0.01,0.077,0.056,0.077h2.488c0.048,0,0.07-0.031,0.057-0.077
		L327.658,58.932z"/>
	<path fill="#454643" d="M333.004,57.113c0-0.042,0.041-0.084,0.086-0.084h2.072c0.049,0,0.101,0.033,0.123,0.076l3.389,6.643
		c0.02,0.043,0.043,0.074,0.049,0.074c0.007,0,0.013-0.035,0.013-0.08v-6.629c0-0.042,0.036-0.084,0.085-0.084h1.576
		c0.045,0,0.084,0.039,0.084,0.084v8.918c0,0.045-0.039,0.086-0.084,0.086h-2.057c-0.047,0-0.102-0.034-0.123-0.076l-3.398-6.645
		c-0.022-0.039-0.045-0.074-0.052-0.074c-0.01,0-0.015,0.035-0.015,0.086v6.623c0,0.045-0.037,0.086-0.084,0.086h-1.578
		c-0.044,0-0.086-0.039-0.086-0.086V57.113z"/>
	<path fill="#454643" d="M322.35,60.908h-3.504c0,0,0,0-0.001,0c-0.043,0.001-0.081,0.038-0.081,0.086v1.262
		c0,0.049,0.035,0.088,0.082,0.088h1.758c0.047,0,0.086,0.036,0.086,0.083c0,0,0,2.077,0,2.176s-0.047,0.12-0.098,0.134
		c-0.048,0.01-0.101,0.021-0.152,0.03c-0.221,0.042-0.477,0.067-0.769,0.074c-0.058,0-0.118,0-0.182,0
		c-1.94,0-3.085-1.392-3.085-3.239c0-0.117,0.003-0.23,0.015-0.341c0.024-0.319,0.087-0.619,0.182-0.901
		c0.416-1.219,1.481-2.046,3.097-2.046c0.344,0,0.723,0.032,1.107,0.104c0.364,0.068,0.971,0.259,1.118,0.314
		c0.083,0.029,0.115,0.013,0.125-0.065c0.019-0.163,0.104-1.326,0.104-1.326c0.003-0.041-0.029-0.087-0.068-0.1
		c-0.002,0-0.003-0.002-0.007-0.002c-0.717-0.209-1.49-0.342-2.431-0.358c-0.053,0-0.105,0-0.157,0
		c-0.481,0-0.937,0.039-1.358,0.126c-0.412,0.082-0.79,0.203-1.14,0.36c-1.51,0.687-2.405,2.082-2.482,4.079
		c-0.005,0.095-0.007,0.191-0.007,0.287c0,3.071,2.046,4.542,4.987,4.542c0.063,0,0.125-0.003,0.188-0.007
		c0.837-0.022,1.688-0.185,2.513-0.396c0.081-0.021,0.205-0.057,0.159-0.044c0.046-0.013,0.081-0.059,0.081-0.104v-4.725
		C322.434,60.946,322.396,60.909,322.35,60.908z"/>
	<path fill="#454643" d="M349.593,60.908h-3.506c-0.048,0.001-0.084,0.038-0.084,0.086v1.262c0,0.049,0.039,0.088,0.084,0.088h1.758
		c0.047,0,0.088,0.036,0.088,0.083c0,0,0,2.077,0,2.176s-0.046,0.12-0.098,0.134c-0.049,0.01-0.099,0.021-0.152,0.03
		c-0.224,0.042-0.477,0.067-0.769,0.074c-0.06,0-0.12,0-0.182,0c-1.939,0-3.084-1.392-3.084-3.239c0-0.117,0.004-0.23,0.015-0.341
		c0.022-0.319,0.086-0.619,0.18-0.901c0.417-1.219,1.48-2.046,3.098-2.046c0.342,0,0.723,0.032,1.105,0.104
		c0.363,0.068,0.973,0.259,1.117,0.314c0.083,0.029,0.117,0.013,0.125-0.065c0.021-0.163,0.106-1.326,0.106-1.326
		c0-0.041-0.028-0.087-0.071-0.1c0,0,0-0.002-0.005-0.002c-0.715-0.209-1.488-0.342-2.427-0.358c-0.056,0-0.107,0-0.159,0
		c-0.483,0-0.937,0.039-1.357,0.126c-0.41,0.082-0.792,0.203-1.14,0.36c-1.511,0.687-2.406,2.082-2.483,4.079
		c-0.007,0.095-0.007,0.191-0.007,0.287c0,3.071,2.046,4.542,4.987,4.542c0.062,0,0.123-0.003,0.188-0.007
		c0.837-0.022,1.687-0.185,2.517-0.396c0.079-0.021,0.201-0.057,0.155-0.044c0.046-0.013,0.084-0.059,0.084-0.104v-4.725
		C349.677,60.946,349.639,60.909,349.593,60.908z"/>
	<path fill="#454643" d="M354.781,57.113c0-0.042,0.039-0.084,0.088-0.084h5.194c0.049,0,0.088,0.039,0.088,0.084v1.264
		c0,0.05-0.039,0.086-0.088,0.086h-3.372c-0.044,0-0.081,0.037-0.081,0.084v2.07c0,0.047,0.037,0.084,0.081,0.084h3.074
		c0.049,0,0.084,0.039,0.084,0.088v1.264c0,0.045-0.035,0.082-0.084,0.082h-3.074c-0.044,0-0.081,0.037-0.081,0.086v2.384
		c0,0.042,0.037,0.084,0.081,0.084h3.401c0.046,0,0.085,0.036,0.085,0.083v1.263c0,0.046-0.039,0.088-0.085,0.088h-5.223
		c-0.048,0-0.086-0.039-0.086-0.088v-8.921H354.781z"/>
	<path fill="#454643" d="M363.939,61.464c0.022-0.039,0.022-0.105,0-0.146l-2.62-4.215c-0.026-0.042-0.007-0.074,0.038-0.074h1.942
		c0.046,0,0.104,0.032,0.127,0.074l1.819,3.094c0.02,0.041,0.059,0.041,0.081,0.002l1.858-3.096
		c0.022-0.042,0.077-0.074,0.126-0.074h1.783c0.046,0,0.065,0.031,0.039,0.074l-2.646,4.215c-0.026,0.038-0.026,0.105,0,0.146
		l2.893,4.583c0.025,0.036,0.01,0.07-0.039,0.07h-1.979c-0.049,0-0.104-0.034-0.126-0.073l-2.014-3.396
		c-0.023-0.039-0.062-0.039-0.088-0.002l-2.033,3.398c-0.026,0.039-0.078,0.073-0.13,0.073h-1.891c-0.045,0-0.062-0.032-0.035-0.07
		L363.939,61.464z"/>
	<path fill="#454643" d="M370.513,57.113c0-0.042,0.035-0.084,0.084-0.084h1.657c0.045,0,0.081,0.039,0.081,0.084v3.502
		c0,0.047,0.039,0.085,0.087,0.085h3.48c0.042,0,0.081-0.036,0.081-0.085v-3.502c0-0.042,0.038-0.084,0.087-0.084h1.654
		c0.042,0,0.081,0.039,0.081,0.084v8.918c0,0.045-0.036,0.086-0.081,0.086h-1.654c-0.049,0-0.087-0.039-0.087-0.086v-3.815
		c0-0.047-0.036-0.086-0.081-0.086h-3.48c-0.048,0-0.087,0.039-0.087,0.086v3.815c0,0.045-0.032,0.086-0.081,0.086h-1.657
		c-0.049,0-0.084-0.039-0.084-0.086V57.113z"/>
	<path fill="#454643" d="M379.657,57.113c0-0.042,0.035-0.084,0.088-0.084h1.653c0.046,0,0.084,0.039,0.084,0.084v8.918
		c0,0.045-0.038,0.086-0.084,0.086h-1.653c-0.049,0-0.088-0.039-0.088-0.086V57.113z"/>
	<path fill="#454643" d="M391.036,57.113c0-0.042,0.036-0.084,0.084-0.084h1.657c0.046,0,0.081,0.039,0.081,0.084v8.918
		c0,0.045-0.035,0.086-0.081,0.086h-1.657c-0.045,0-0.084-0.039-0.084-0.086V57.113z"/>
	<path fill="#454643" d="M389.713,63.468c-0.01-1.104-0.84-1.923-2.056-2.048c-0.02-0.01-0.026-0.021-0.026-0.029
		c0.474-0.088,0.879-0.279,1.184-0.56c0.046-0.037,0.088-0.081,0.127-0.124c0.317-0.348,0.503-0.809,0.503-1.35
		c0-1.989-1.761-2.328-2.929-2.328h-0.088h-3.009c-0.046,0-0.085,0.039-0.088,0.084v8.918c0.003,0.045,0.042,0.086,0.088,0.086
		h3.097c0.636,0,1.563-0.107,2.254-0.602c0.548-0.389,0.947-1.018,0.947-2.027C389.717,63.48,389.713,63.473,389.713,63.468z
		 M385.16,60.615v-2.068c0-0.047,0.036-0.086,0.084-0.086h0.62c0.833,0,1.754,0.079,1.754,1.132c0,0.034,0,0.063-0.007,0.094
		c-0.058,0.853-0.969,1.011-1.709,1.011h-0.658C385.196,60.7,385.16,60.662,385.16,60.615z M387.888,63.527
		c-0.068,0.963-1.055,1.158-1.868,1.158h-0.088h-0.69c-0.045,0-0.084-0.039-0.084-0.084V62.14c0-0.046,0.039-0.087,0.084-0.087
		h0.775c0.541,0,1.103,0.067,1.466,0.369c0.032,0.025,0.062,0.052,0.091,0.082c0.197,0.203,0.32,0.495,0.32,0.92
		C387.891,63.459,387.891,63.494,387.888,63.527z"/>
	<path fill="#454643" d="M396.371,58.547c0-0.045-0.039-0.084-0.088-0.084h-2.438c-0.042,0-0.081-0.036-0.081-0.088v-1.262
		c0-0.043,0.035-0.084,0.081-0.084h6.865c0.045,0,0.087,0.039,0.087,0.084v1.262c0,0.051-0.039,0.088-0.087,0.088h-2.436
		c-0.046,0-0.085,0.035-0.085,0.084v7.484c0,0.045-0.038,0.088-0.087,0.088h-1.654c-0.045,0-0.084-0.041-0.084-0.088v-7.484H396.371
		z"/>
	<path fill="#454643" d="M401.702,57.113c0-0.042,0.035-0.084,0.084-0.084h1.654c0.048,0,0.087,0.039,0.087,0.084v8.918
		c0,0.045-0.039,0.086-0.087,0.086h-1.654c-0.049,0-0.084-0.039-0.084-0.086V57.113z"/>
	<path fill="#454643" d="M409.391,56.877c2.851,0,4.452,1.926,4.452,4.67c0,2.743-1.579,4.725-4.452,4.725
		c-2.922,0-4.456-1.939-4.456-4.725C404.935,58.764,406.498,56.877,409.391,56.877z M409.391,64.838c1.861,0,2.549-1.65,2.549-3.29
		c0-1.601-0.742-3.237-2.549-3.237c-1.813,0-2.556,1.637-2.556,3.237C406.835,63.188,407.526,64.838,409.391,64.838z"/>
	<path fill="#454643" d="M415.315,57.113c0-0.042,0.039-0.084,0.087-0.084h2.072c0.046,0,0.098,0.033,0.124,0.076l3.385,6.643
		c0.023,0.043,0.046,0.074,0.052,0.074c0.01,0,0.014-0.035,0.014-0.08v-6.629c0-0.042,0.035-0.084,0.087-0.084h1.573
		c0.049,0,0.088,0.039,0.088,0.084v8.918c0,0.045-0.039,0.086-0.088,0.086h-2.06c-0.045,0-0.101-0.034-0.12-0.076l-3.401-6.645
		c-0.022-0.039-0.042-0.074-0.052-0.074c-0.007,0-0.013,0.035-0.013,0.086v6.623c0,0.045-0.036,0.086-0.085,0.086h-1.576
		c-0.048,0-0.087-0.039-0.087-0.086V57.113z"/>
	<path fill="#454643" d="M435.865,57.113c0-0.042,0.035-0.084,0.084-0.084h5.195c0.045,0,0.088,0.039,0.088,0.084v1.264
		c0,0.05-0.039,0.086-0.088,0.086h-3.373c-0.045,0-0.087,0.037-0.087,0.084v2.07c0,0.047,0.039,0.084,0.087,0.084h3.074
		c0.046,0,0.085,0.039,0.085,0.088v1.264c0,0.045-0.039,0.082-0.085,0.082h-3.074c-0.045,0-0.087,0.037-0.087,0.086v2.384
		c0,0.042,0.039,0.084,0.087,0.084h3.398c0.046,0,0.088,0.036,0.088,0.083v1.263c0,0.046-0.039,0.088-0.088,0.088h-5.217
		c-0.049,0-0.088-0.039-0.088-0.088V57.113L435.865,57.113z"/>
	<path fill="#454643" d="M434.549,64.556c-0.004-0.065-0.052-0.066-0.071-0.058c-0.023,0.009-0.033,0.012-0.059,0.025
		c-0.457,0.188-1.216,0.314-1.868,0.314c-1.939,0-3.09-1.39-3.09-3.24c0-0.115,0.006-0.229,0.016-0.338
		c0.026-0.32,0.091-0.619,0.179-0.903c0.408-1.218,1.43-2.046,2.856-2.046h0.004c0.587,0,1.154,0.074,1.771,0.377
		c0.045,0.024,0.087,0.051,0.123,0.068c0.042,0.021,0.071,0.01,0.078-0.051c0.003-0.035,0.113-1.346,0.113-1.381
		c0.003-0.035-0.007-0.074-0.046-0.091c-0.042-0.017-0.113-0.042-0.175-0.062c-0.609-0.205-1.294-0.295-1.829-0.295
		c-0.483,0-0.934,0.039-1.358,0.126c-0.409,0.083-0.788,0.204-1.135,0.36c-1.512,0.688-2.41,2.082-2.487,4.081
		c-0.004,0.093-0.007,0.189-0.007,0.285s0.003,0.192,0.007,0.282c0.01,0.187,0.025,0.366,0.048,0.538
		c0.01,0.089,0.023,0.174,0.039,0.255c0.039,0.223,0.095,0.43,0.159,0.629c0.633,1.914,2.399,2.841,4.734,2.841
		c0.172,0,0.347-0.01,0.519-0.026c0.451-0.037,0.905-0.116,1.34-0.211c0.039-0.011,0.078-0.02,0.136-0.035
		c0.056-0.015,0.078-0.022,0.078-0.089C434.616,65.817,434.549,64.614,434.549,64.556z"/>
	<path fill="#454643" d="M442.912,57.113c0-0.042,0.039-0.084,0.087-0.084h2.069c0.045,0,0.101,0.033,0.123,0.076l3.389,6.643
		c0.022,0.043,0.042,0.074,0.052,0.074c0.007,0,0.014-0.035,0.014-0.08v-6.629c0-0.042,0.035-0.084,0.084-0.084h1.572
		c0.049,0,0.091,0.039,0.091,0.084v8.918c0,0.045-0.042,0.086-0.091,0.086h-2.053c-0.048,0-0.104-0.034-0.123-0.076l-3.401-6.645
		c-0.022-0.039-0.042-0.074-0.052-0.074c-0.007,0-0.01,0.035-0.01,0.086v6.623c0,0.045-0.039,0.086-0.088,0.086h-1.576
		c-0.045,0-0.084-0.039-0.084-0.086v-8.918H442.912z"/>
	<path fill="#454643" d="M453.96,58.547c0-0.045-0.035-0.084-0.084-0.084h-2.436c-0.049,0-0.084-0.036-0.084-0.088v-1.262
		c0-0.043,0.032-0.084,0.084-0.084h6.865c0.042,0,0.081,0.039,0.081,0.084v1.262c0,0.051-0.036,0.088-0.081,0.088h-2.438
		c-0.046,0-0.085,0.035-0.085,0.084v7.484c0,0.045-0.038,0.088-0.084,0.088h-1.657c-0.045,0-0.084-0.041-0.084-0.088v-7.484H453.96z
		"/>
	<path fill="#454643" d="M459.45,57.113c0-0.042,0.036-0.084,0.081-0.084h5.198c0.049,0,0.084,0.039,0.084,0.084v1.264
		c0,0.05-0.035,0.086-0.084,0.086h-3.376c-0.045,0-0.081,0.037-0.081,0.084v2.07c0,0.047,0.036,0.084,0.081,0.084h3.071
		c0.052,0,0.088,0.039,0.088,0.088v1.264c0,0.045-0.036,0.082-0.088,0.082h-3.071c-0.045,0-0.081,0.037-0.081,0.086v2.384
		c0,0.042,0.036,0.084,0.081,0.084h3.402c0.045,0,0.081,0.036,0.081,0.083v1.263c0,0.046-0.033,0.088-0.081,0.088h-5.225
		c-0.045,0-0.078-0.039-0.078-0.088v-8.921H459.45z"/>
	<path fill="#454643" d="M471.773,62.562c-0.182-0.396-0.464-0.879-0.947-0.931c-0.01-0.014-0.017-0.026-0.017-0.033
		c1.161-0.152,1.875-1.037,1.875-2.107c0-2.438-2.173-2.458-4.083-2.458c-0.068,0-0.117,0-0.117,0c-0.048,0-0.123,0-0.168,0h-1.797
		c-0.049,0-0.088,0.039-0.088,0.083v8.916c0,0.047,0.039,0.088,0.088,0.088h1.654c0.045,0,0.087-0.039,0.087-0.088v-3.604
		c0-0.047,0.036-0.083,0.085-0.083h0.499c0.769,0,1.005,0.26,1.265,0.934l0.545,1.418l0.545,1.42h0.087h1.865
		c0.045,0,0.071-0.035,0.049-0.078L471.773,62.562z M468.854,60.908h-0.088h-0.425c-0.049,0-0.087-0.038-0.087-0.085v-2.276
		c0-0.047,0.035-0.086,0.087-0.086h0.51c0.911,0,1.929,0.091,1.929,1.187c0,0.076-0.013,0.147-0.025,0.216
		C470.622,60.787,469.688,60.908,468.854,60.908z"/>
</g>
<path fill="#313331" d="M49.813,28.773H35.425v41.003H24.032V28.773H9.717v-9.211h40.096V28.773z"/>
<path fill="#313331" d="M76.404,69.779H65.889v-5.154h-0.141c-2.417,4.019-5.994,6.024-10.729,6.024
	c-3.494,0-6.242-0.985-8.249-2.957c-2.003-1.971-3.004-4.604-3.004-7.899c0-6.953,4.138-10.965,12.414-12.043l9.778-1.297
	c0-3.92-2.135-5.881-6.401-5.881c-4.29,0-8.369,1.271-12.237,3.818v-8.336c1.546-0.795,3.665-1.493,6.346-2.101
	c2.686-0.607,5.131-0.912,7.334-0.912c10.271,0,15.407,5.104,15.407,15.303v21.434H76.404z M65.955,55.209v-2.414l-6.538,0.838
	c-3.614,0.468-5.419,2.087-5.419,4.869c0,1.261,0.438,2.291,1.317,3.098c0.879,0.807,2.071,1.205,3.57,1.205
	c2.088,0,3.79-0.711,5.098-2.15C65.299,59.221,65.955,57.404,65.955,55.209z"/>
<path fill="#313331" d="M89.385,28.246c-1.876,0-3.414-0.558-4.609-1.662c-1.195-1.11-1.797-2.47-1.797-4.082
	c0-1.66,0.601-3.013,1.797-4.063c1.195-1.05,2.733-1.576,4.609-1.576c1.895,0,3.439,0.526,4.623,1.576
	c1.181,1.05,1.776,2.403,1.776,4.063c0,1.68-0.593,3.056-1.776,4.131C92.824,27.706,91.281,28.246,89.385,28.246z M94.871,69.779
	H83.754V33.917h11.117V69.779z"/>
<path fill="#11617F" d="M149.248,69.779h-11.463l-20.79-31.555c-1.222-1.843-2.063-3.229-2.533-4.167h-0.141
	c0.188,1.778,0.282,4.48,0.282,8.127v27.594h-10.729V19.562h12.24l20.012,30.576c0.916,1.377,1.76,2.741,2.531,4.091h0.145
	c-0.188-1.165-0.28-3.463-0.28-6.896v-27.77h10.726V69.779L149.248,69.779z M189.592,69.779h-30.247V19.562h29.087v9.211h-17.728
	V39.94H187.2v9.173h-16.496v11.485h18.888V69.779L189.592,69.779z M237.709,69.779h-13.474l-8.69-16.354
	c-0.325-0.608-0.67-1.727-1.016-3.364h-0.146c-0.164,0.776-0.551,1.939-1.16,3.507l-8.722,16.212h-13.544l16.077-25.109
	l-14.703-25.108h13.825l7.206,15.057c0.565,1.191,1.065,2.605,1.513,4.239h0.143c0.285-0.982,0.807-2.44,1.583-4.377l8.019-14.918
	h12.66L222.16,44.461L237.709,69.779z"/>
<g>
	<path fill="#1AAB9F" d="M222.486,43.924l14.793-24.362h-12.66l-8.019,14.919c-0.776,1.938-1.298,3.395-1.583,4.377h-0.143
		c-0.447-1.633-0.947-3.047-1.513-4.238l-7.206-15.058h-13.825l14.266,24.362H222.486z"/>
	<polygon fill="#1AAB9F" points="187.2,43.924 187.2,39.94 170.704,39.94 170.704,28.773 188.432,28.773 188.432,19.562 
		159.345,19.562 159.345,43.924 	"/>
	<path fill="#1AAB9F" d="M114.604,43.924v-1.739c0-3.646-0.095-6.348-0.282-8.126h0.141c0.47,0.938,1.312,2.323,2.533,4.167
		l3.754,5.699h11.311l-15.944-24.362h-12.24v24.362H114.604z"/>
	<rect x="138.522" y="19.562" fill="#1AAB9F" width="10.726" height="24.362"/>
</g>
</svg>
