<svg width="34" height="34" viewBox="0 0 34 34" fill="none" xmlns="http://www.w3.org/2000/svg">
<g clip-path="url(#clip0)">
<path d="M30.7467 4.01611H3.43508C1.8312 4.01611 0.522705 5.32319 0.522705 6.92849V26.3443C0.522705 27.9442 1.82538 29.2567 3.43508 29.2567H30.7467C32.3466 29.2567 33.6591 27.954 33.6591 26.3443V6.92849C33.6591 5.32862 32.3564 4.01611 30.7467 4.01611ZM30.3445 5.9577L17.1526 19.1497L3.84663 5.9577H30.3445ZM2.46429 25.9423V7.32127L11.8149 16.5917L2.46429 25.9423ZM3.83718 27.3151L13.1937 17.9586L16.4722 21.209C16.8517 21.5852 17.4641 21.584 17.8421 21.206L21.0388 18.0093L30.3446 27.3151H3.83718ZM31.7175 25.9422L22.4117 16.6364L31.7175 7.33053V25.9422Z" fill="white"/>
</g>
<defs>
<clipPath id="clip0">
<rect width="33.1364" height="33.1364" fill="white" transform="translate(0.522705 0.0683594)"/>
</clipPath>
</defs>
</svg>
