<svg width="30" height="30" viewBox="0 0 30 30" fill="none" xmlns="http://www.w3.org/2000/svg">
<g clip-path="url(#clip0)">
<path d="M29.5674 27.2462L22.4914 20.1704C24.2502 18.0553 25.3099 15.3393 25.3099 12.3799C25.3099 5.65081 19.8355 0.17627 13.1067 0.17627C6.3777 0.17627 0.90332 5.65081 0.90332 12.3799C0.90332 19.1086 6.3777 24.5827 13.1067 24.5827C16.0659 24.5827 18.782 23.5232 20.8971 21.7643L27.9733 28.8404C28.1933 29.0606 28.4819 29.1706 28.7703 29.1706C29.0588 29.1706 29.3474 29.0606 29.5676 28.8404C30.0078 28.4001 30.0078 27.6865 29.5674 27.2462ZM3.15789 12.3799C3.15789 6.89397 7.62087 2.43084 13.1067 2.43084C18.5923 2.43084 23.0552 6.89397 23.0552 12.3799C23.0552 17.8654 18.5923 22.3281 13.1067 22.3281C7.62087 22.3281 3.15789 17.8654 3.15789 12.3799Z" fill="white"/>
</g>
<defs>
<clipPath id="clip0">
<rect width="28.9943" height="28.9943" fill="white" transform="translate(0.90332 0.17627)"/>
</clipPath>
</defs>
</svg>
