<?xml version="1.0" encoding="utf-8"?>
<!-- Generator: Adobe Illustrator 16.0.3, SVG Export Plug-In . SVG Version: 6.00 Build 0)  -->
<!DOCTYPE svg PUBLIC "-//W3C//DTD SVG 1.1//EN" "http://www.w3.org/Graphics/SVG/1.1/DTD/svg11.dtd">
<svg version="1.1" id="圖層_1" xmlns="http://www.w3.org/2000/svg" xmlns:xlink="http://www.w3.org/1999/xlink" x="0px" y="0px"
	 width="50px" height="50px" viewBox="0 0 50 50" enable-background="new 0 0 50 50" xml:space="preserve">
<g>
	<path fill="#FFFFFF" d="M42.029,14.801H17.833c-1.524,0-2.771-1.247-2.771-2.771c0-1.524,1.247-2.771,2.771-2.771h24.196
		c1.524,0,2.771,1.247,2.771,2.771C44.8,13.554,43.554,14.801,42.029,14.801"/>
</g>
<g>
	<defs>
		<path id="SVGID_1_" d="M28.124,15.486c-5.387,0-9.796,4.362-9.796,9.694v3.293c0,2.409-2.74,3.829-4.737,2.452
			c-2.708-1.866-2.976-4.459-3.475-7.824l-1.15,1.07L7.688,22.77v7.879c0,6.637,5.488,12.067,12.194,12.067h5.09h10.515h1.23
			c5.389,0,9.796-4.362,9.796-9.694V25.18c0-5.332-4.407-9.694-9.796-9.694H28.124z"/>
	</defs>
	<linearGradient id="SVGID_2_" gradientUnits="userSpaceOnUse" x1="27.0996" y1="36.542" x2="27.0996" y2="28.9475">
		<stop  offset="0" style="stop-color:#056BAF"/>
		<stop  offset="1" style="stop-color:#06397C"/>
	</linearGradient>
	<use xlink:href="#SVGID_1_"  overflow="visible" fill="url(#SVGID_2_)"/>
	<clipPath id="SVGID_3_">
		<use xlink:href="#SVGID_1_"  overflow="visible"/>
	</clipPath>
</g>
<g>
	<path fill="#C3DADF" d="M21.546,39.956c2.589-0.178,4.148-1.875,5.146-3.498c0.592-0.964,1.89-1.188,2.792-0.506
		c0.026,0.022,0.056,0.042,0.083,0.063c1.273,0.915,3.046,0.756,4.599,0.52c2.688-0.41,5.213-1.505,7.822-2.26
		c1.46-0.424,2.997-0.736,4.513-0.761c-0.26,5.105-4.561,9.202-9.783,9.202h-1.23H24.972h-5.09c-2.821,0-5.424-0.963-7.496-2.571
		C14.889,40.17,18.573,40.16,21.546,39.956"/>
	<path fill="#557FA9" d="M44.347,24.729c0,2.406-1.668,4.356-3.724,4.356c-2.057,0-3.724-1.95-3.724-4.356s1.667-3.8,3.724-3.8
		C42.679,20.929,44.347,22.322,44.347,24.729"/>
	<path fill="#0B2E4B" d="M43.206,24.602c0,1.427-1.156,2.583-2.583,2.583s-2.583-1.156-2.583-2.583s1.156-2.584,2.583-2.584
		S43.206,23.175,43.206,24.602"/>
	<path fill="#FFFFFF" d="M42.862,23.259c0,0.476-0.386,0.861-0.861,0.861s-0.861-0.385-0.861-0.861s0.386-0.861,0.861-0.861
		S42.862,22.784,42.862,23.259"/>
	<path fill="#557FA9" d="M27.935,24.729c0,2.406-1.667,4.356-3.724,4.356c-2.056,0-3.724-1.95-3.724-4.356s1.667-3.8,3.724-3.8
		C26.268,20.929,27.935,22.322,27.935,24.729"/>
	<path fill="#0B2E4B" d="M26.794,24.602c0,1.427-1.156,2.583-2.583,2.583s-2.584-1.156-2.584-2.583s1.157-2.584,2.584-2.584
		S26.794,23.175,26.794,24.602"/>
	<path fill="#FFFFFF" d="M25.832,23.259c0,0.476-0.386,0.861-0.861,0.861s-0.861-0.385-0.861-0.861s0.386-0.861,0.861-0.861
		S25.832,22.784,25.832,23.259"/>
	<path fill="#557FA9" d="M33.568,26.385c0,0.762-0.619,1.38-1.381,1.38s-1.38-0.618-1.38-1.38c0-0.762,0.618-1.38,1.38-1.38
		S33.568,25.623,33.568,26.385"/>
</g>
<g>
	<path fill="#06397C" d="M22.442,13.609v-2.48h-0.886v-0.505h2.372v0.505h-0.883v2.48H22.442z"/>
	<path fill="#06397C" d="M24.019,12.813v-0.572h1.124v0.572H24.019z"/>
	<path fill="#06397C" d="M25.479,10.625h1.192c0.236,0,0.413,0.01,0.528,0.03c0.116,0.02,0.221,0.061,0.312,0.123
		c0.092,0.063,0.168,0.146,0.229,0.25c0.062,0.104,0.092,0.22,0.092,0.349c0,0.14-0.038,0.268-0.113,0.385s-0.178,0.204-0.307,0.263
		c0.183,0.053,0.322,0.143,0.42,0.271c0.098,0.128,0.146,0.278,0.146,0.45c0,0.136-0.031,0.268-0.095,0.396s-0.149,0.23-0.259,0.308
		c-0.109,0.077-0.244,0.124-0.404,0.141c-0.1,0.011-0.343,0.018-0.727,0.021h-1.016V10.625z M26.081,11.122v0.69h0.395
		c0.235,0,0.381-0.003,0.438-0.01c0.103-0.012,0.184-0.048,0.243-0.107c0.059-0.059,0.088-0.137,0.088-0.233
		c0-0.092-0.025-0.167-0.076-0.225s-0.126-0.093-0.227-0.105c-0.06-0.006-0.231-0.01-0.516-0.01H26.081z M26.081,12.309v0.798h0.558
		c0.217,0,0.355-0.006,0.413-0.018c0.09-0.017,0.163-0.056,0.219-0.119c0.057-0.063,0.085-0.148,0.085-0.254
		c0-0.089-0.021-0.166-0.065-0.228c-0.043-0.062-0.106-0.108-0.188-0.136s-0.26-0.042-0.534-0.042H26.081z"/>
	<path fill="#06397C" d="M28.352,12.498c0-0.19,0.047-0.374,0.141-0.552c0.094-0.178,0.227-0.313,0.397-0.407
		c0.172-0.093,0.364-0.14,0.575-0.14c0.327,0,0.596,0.106,0.805,0.318s0.313,0.481,0.313,0.805c0,0.327-0.105,0.599-0.316,0.813
		c-0.211,0.215-0.477,0.323-0.797,0.323c-0.198,0-0.388-0.045-0.567-0.134c-0.18-0.09-0.316-0.221-0.41-0.394
		S28.352,12.746,28.352,12.498z M28.938,12.528c0,0.214,0.052,0.378,0.153,0.493c0.102,0.114,0.228,0.171,0.376,0.171
		c0.149,0,0.275-0.057,0.376-0.171c0.102-0.114,0.151-0.28,0.151-0.497c0-0.212-0.05-0.375-0.151-0.489
		c-0.101-0.114-0.227-0.171-0.376-0.171c-0.148,0-0.274,0.057-0.376,0.171C28.989,12.149,28.938,12.314,28.938,12.528z"/>
</g>
<g>
	<path fill="#06397C" d="M32.087,11.044c-0.198,0.886-0.461,1.576-0.788,2.069L30.98,12.88c0.309-0.458,0.556-1.108,0.741-1.948
		L32.087,11.044z M33.082,13.314c0,0.341-0.138,0.511-0.413,0.511c-0.265,0-0.429-0.001-0.491-0.004l-0.143-0.395
		c0.106,0.011,0.28,0.016,0.521,0.016c0.087,0,0.131-0.039,0.131-0.116v-3.139h0.395V13.314z M34.662,12.954l-0.351,0.186
		c-0.137-0.611-0.366-1.303-0.688-2.077l0.342-0.13C34.244,11.557,34.476,12.23,34.662,12.954z"/>
	<path fill="#06397C" d="M37.244,11.571c-0.692,0.094-1.368,0.159-2.026,0.195L35.195,11.5c0.281-0.012,0.563-0.029,0.848-0.051
		v-0.183h-0.677V11.04h0.677v-0.132H35.21v-0.23h0.833v-0.141h-0.677v-0.218h0.677v-0.151h0.358v0.151h0.639v0.218h-0.639v0.141
		h0.691v0.23h-0.691v0.132h0.639v0.226h-0.639v0.146c0.244-0.017,0.523-0.045,0.839-0.087L37.244,11.571z M38.624,13.387
		c0,0.072-0.019,0.131-0.056,0.176s-0.083,0.074-0.138,0.086c-0.054,0.012-0.159,0.019-0.315,0.019
		c-0.143,0-0.243-0.004-0.304-0.012l-0.126-0.301c0.084,0.002,0.257,0.004,0.518,0.004c0.047,0,0.071-0.023,0.071-0.071v-0.148
		h-1.081v0.678h-0.371v-0.678h-1.075v0.538h-0.366v-0.8h1.441V12.73h-1.167v-0.859h0.992c0.047-0.068,0.085-0.127,0.111-0.179
		l0.373,0.037l-0.088,0.143h1.289v0.859h-1.14v0.146h1.431V13.387z M37.977,12.208v-0.122h-1.954v0.122H37.977z M37.977,12.512
		v-0.125h-1.954v0.125H37.977z M37.907,11.195L37.631,11.4c-0.16-0.158-0.298-0.271-0.411-0.342l0.271-0.189
		C37.627,10.946,37.767,11.055,37.907,11.195z M38.812,10.808h-0.283v0.617c0,0.103-0.037,0.188-0.11,0.256
		c-0.074,0.068-0.275,0.095-0.602,0.082l-0.123-0.342h0.385c0.064,0,0.096-0.035,0.096-0.104v-0.509h-0.95V10.49h0.95v-0.318h0.354
		v0.318h0.283V10.808z"/>
	<path fill="#06397C" d="M42.985,12.667h-1.521v0.76c0,0.096-0.029,0.177-0.089,0.242c-0.059,0.065-0.122,0.105-0.19,0.119
		c-0.067,0.014-0.224,0.021-0.468,0.021c-0.109,0-0.248-0.001-0.418-0.004l-0.107-0.366c0.23,0.008,0.415,0.012,0.554,0.012
		c0.143,0,0.233-0.003,0.273-0.008s0.061-0.052,0.061-0.138v-0.638h-1.715v-0.362h1.715v-0.617h-1.492v-0.367h1.492v-0.543
		c-0.396,0.04-0.874,0.068-1.438,0.087l-0.118-0.342c1.193-0.031,2.21-0.149,3.052-0.354l0.214,0.318
		c-0.297,0.081-0.739,0.162-1.325,0.242v0.592h1.291v0.367h-1.291v0.617h1.521V12.667z"/>
</g>
<g>
	<path fill="#C5171E" d="M20.406,12.017c0,1.537-1.247,2.784-2.784,2.784s-2.783-1.247-2.783-2.784c0-1.537,1.246-2.783,2.783-2.783
		S20.406,10.48,20.406,12.017"/>
	<circle fill="none" stroke="#FFFFFF" stroke-width="0.008" stroke-miterlimit="10" cx="17.623" cy="12.017" r="2.783"/>
	<path fill="#FFFFFF" d="M18.159,13.089c-0.008,0.026-0.026,0.057-0.043,0.074c-0.176,0.183-0.414,0.216-0.654,0.175
		c-0.127-0.017-0.29-0.175-0.268-0.342c0.018-0.114,0.035-0.229,0.053-0.342c0.036-0.197,0.07-0.399,0.105-0.597
		c0-0.087,0.006-0.151-0.105-0.163c-0.035-0.004-0.07-0.009-0.105-0.018c-0.04-0.013-0.062-0.048-0.057-0.079
		c0.004-0.035,0.026-0.057,0.07-0.066c0.28-0.056,0.868-0.135,0.777,0.29c-0.04,0.228-0.083,0.452-0.123,0.68
		c-0.014,0.075-0.031,0.149-0.04,0.224c-0.004,0.035,0,0.074,0.008,0.11c0.014,0.048,0.049,0.074,0.097,0.07
		c0.039-0.005,0.079-0.018,0.118-0.036c0.03-0.013,0.057-0.035,0.087-0.044C18.133,13.009,18.172,13.041,18.159,13.089
		C18.15,13.115,18.172,13.041,18.159,13.089"/>
	<path fill="#FFFFFF" d="M17.647,10.682c0.2,0,0.359,0.165,0.359,0.364c0,0.2-0.165,0.364-0.359,0.364
		c-0.199,0-0.364-0.165-0.364-0.37C17.284,10.841,17.448,10.682,17.647,10.682"/>
</g>
<path fill-rule="evenodd" clip-rule="evenodd" fill="#06397C" d="M10.309,21.516c1.47-1.642,4.007-1.782,5.648-0.313
	c0.074,0.066,0.144,0.134,0.212,0.204l-2.093,2.339c-0.163-0.291-0.481-0.481-0.837-0.46c-0.494,0.026-0.875,0.453-0.848,0.947
	c0.02,0.355,0.243,0.651,0.551,0.78l-2.094,2.339c-0.077-0.06-0.153-0.122-0.227-0.188C8.98,25.694,8.84,23.157,10.309,21.516
	 M7.581,18.987c1.469-1.642,1.329-4.179-0.313-5.648c-0.075-0.066-0.15-0.129-0.227-0.188L4.948,15.49
	c0.307,0.129,0.531,0.424,0.55,0.78c0.028,0.495-0.354,0.921-0.849,0.948c-0.354,0.02-0.673-0.17-0.835-0.461l-2.093,2.338
	c0.068,0.07,0.138,0.139,0.212,0.205C3.574,20.77,6.111,20.629,7.581,18.987 M10.204,18.796c-1.642-1.47-1.782-4.006-0.313-5.648
	c0.066-0.074,0.134-0.145,0.204-0.212l2.339,2.093c-0.291,0.163-0.48,0.482-0.461,0.836c0.027,0.495,0.453,0.876,0.948,0.848
	c0.354-0.019,0.65-0.243,0.78-0.55l2.339,2.093c-0.059,0.077-0.122,0.153-0.188,0.227C14.383,20.125,11.846,20.266,10.204,18.796
	 M7.748,21.589C6.106,20.12,3.569,20.26,2.1,21.902c-0.066,0.074-0.129,0.149-0.188,0.227l2.339,2.094
	c0.129-0.308,0.425-0.532,0.78-0.551c0.495-0.028,0.921,0.353,0.948,0.848c0.02,0.354-0.17,0.674-0.461,0.837l2.339,2.092
	c0.07-0.066,0.139-0.138,0.205-0.211C9.53,25.595,9.39,23.058,7.748,21.589"/>
</svg>
