<svg width="36" height="40" viewBox="0 0 36 40" fill="none" xmlns="http://www.w3.org/2000/svg">
<g clip-path="url(#clip0)">
<path d="M22.6608 31.3786C22.1375 31.3786 21.6835 30.9464 21.6157 30.3547C21.5424 29.7126 21.951 29.1261 22.5287 29.0443C25.8614 28.5725 28.8458 27.5691 30.9321 26.2184C32.8402 24.9833 33.8907 23.5313 33.8907 22.1299C33.8907 20.5854 32.6614 19.3217 31.6297 18.5331C31.1499 18.1663 31.0285 17.4369 31.3586 16.9035C31.6888 16.3703 32.3455 16.2354 32.8253 16.6023C34.9023 18.1898 36.0001 20.1011 36.0001 22.1302C36.0001 24.4331 34.615 26.547 31.9942 28.2435C29.6352 29.7706 26.4543 30.8515 22.7953 31.3694C22.75 31.3755 22.705 31.3786 22.6608 31.3786Z" fill="white"/>
<path d="M17.7429 29.6997L14.9304 26.5747C14.5184 26.1169 13.8507 26.1169 13.4388 26.5747C13.027 27.0321 13.027 27.7743 13.4388 28.2318L14.2605 29.1449C11.1096 28.7832 8.24716 27.9681 6.03067 26.7837C3.5387 25.4522 2.10938 23.7558 2.10938 22.1298C2.10938 20.7507 3.13275 19.3173 4.99081 18.0935C5.49207 17.7636 5.65741 17.0446 5.3605 16.488C5.06332 15.9311 4.41623 15.7473 3.91525 16.0772C0.67923 18.2086 0 20.545 0 22.1298C0 24.7299 1.81714 27.1328 5.11661 28.8961C7.67752 30.2642 10.9902 31.1807 14.5992 31.5353L13.4388 32.8247C13.027 33.2821 13.027 34.0243 13.4388 34.4821C13.6447 34.7107 13.9147 34.8251 14.1847 34.8251C14.4544 34.8251 14.7244 34.7107 14.9304 34.4821L17.7429 31.3571C18.1546 30.8993 18.1546 30.1571 17.7429 29.6997Z" fill="white"/>
<path d="M11.0459 19.7829V19.5009C11.0459 18.5064 10.4979 18.3135 9.76321 18.3135C9.30893 18.3135 9.16199 17.8682 9.16199 17.423C9.16199 16.9774 9.30893 16.5322 9.76321 16.5322C10.2708 16.5322 10.8053 16.458 10.8053 15.2556C10.8053 14.3947 10.3644 14.1869 9.8165 14.1869C9.16199 14.1869 8.828 14.3651 8.828 14.944C8.828 15.4485 8.6275 15.79 7.85269 15.79C6.89084 15.79 6.77081 15.5672 6.77081 14.8546C6.77081 13.6971 7.51871 12.1978 9.8165 12.1978C11.5133 12.1978 12.7957 12.8804 12.7957 14.8845C12.7957 15.9679 12.4351 16.9774 11.7671 17.3189C12.5554 17.6454 13.1297 18.2985 13.1297 19.5009V19.7829C13.1297 22.2173 11.6202 23.1377 9.74976 23.1377C7.45197 23.1377 6.57031 21.5792 6.57031 20.3322C6.57031 19.6642 6.8241 19.486 7.55881 19.486C8.41382 19.486 8.6275 19.6938 8.6275 20.2581C8.6275 20.9557 9.21555 21.119 9.8165 21.119C10.7251 21.119 11.0459 20.7479 11.0459 19.7829Z" fill="white"/>
<path d="M21.2391 19.5009V19.6346C21.2391 22.1877 19.8095 23.1377 17.966 23.1377C16.1225 23.1377 14.6794 22.1877 14.6794 19.6346V15.7009C14.6794 13.1478 16.1623 12.1978 18.0863 12.1978C20.344 12.1978 21.2391 13.7563 21.2391 14.9883C21.2391 15.7009 20.9318 15.9233 20.2638 15.9233C19.6895 15.9233 19.1816 15.7601 19.1816 15.0774C19.1816 14.5134 18.6474 14.2165 18.0196 14.2165C17.2313 14.2165 16.7635 14.6767 16.7635 15.7009V17.0366C17.1912 16.5172 17.7924 16.3835 18.4337 16.3835C19.9565 16.3835 21.2391 17.1257 21.2391 19.5009ZM16.7635 19.7979C16.7635 20.822 17.2178 21.2673 17.966 21.2673C18.7142 21.2673 19.155 20.822 19.155 19.7979V19.6642C19.155 18.5805 18.7142 18.1649 17.9525 18.1649C17.2313 18.1649 16.7635 18.5509 16.7635 19.5305V19.7979Z" fill="white"/>
<path d="M22.8552 19.6346V15.7009C22.8552 13.1478 24.2845 12.1978 26.1283 12.1978C27.9718 12.1978 29.4146 13.1478 29.4146 15.7009V19.6346C29.4146 22.1877 27.9718 23.1377 26.1283 23.1377C24.2845 23.1377 22.8552 22.1877 22.8552 19.6346ZM27.3305 15.7009C27.3305 14.6767 26.8765 14.2165 26.1283 14.2165C25.3802 14.2165 24.9393 14.6767 24.9393 15.7009V19.6346C24.9393 20.6588 25.3802 21.119 26.1283 21.119C26.8765 21.119 27.3305 20.6588 27.3305 19.6346V15.7009Z" fill="white"/>
<path d="M31.9465 12.1875C30.2016 12.1875 28.7825 10.6104 28.7825 8.67187C28.7825 6.7334 30.2016 5.15625 31.9465 5.15625C33.6912 5.15625 35.1106 6.7334 35.1106 8.67187C35.1106 10.6104 33.6912 12.1875 31.9465 12.1875ZM31.9465 7.5C31.3648 7.5 30.8918 8.02582 30.8918 8.67187C30.8918 9.31824 31.3648 9.84375 31.9465 9.84375C32.528 9.84375 33.0012 9.31824 33.0012 8.67187C33.0012 8.02582 32.528 7.5 31.9465 7.5Z" fill="white"/>
</g>
<defs>
<clipPath id="clip0">
<rect width="36" height="40" fill="white"/>
</clipPath>
</defs>
</svg>
