<svg width="33" height="33" viewBox="0 0 33 33" fill="none" xmlns="http://www.w3.org/2000/svg">
<path fill-rule="evenodd" clip-rule="evenodd" d="M26.5355 12.2226C27.1955 11.1639 27.5668 9.92638 27.4843 8.56513C27.3055 5.60888 24.9543 3.10638 22.0255 2.79013C18.2855 2.37763 15.123 5.27888 15.123 8.93638C15.123 12.3601 17.8868 15.1239 21.2968 15.1239C22.5068 15.1239 23.6343 14.7664 24.583 14.1614L27.8968 17.4751C28.433 18.0114 29.313 18.0114 29.8493 17.4751C30.3855 16.9389 30.3855 16.0589 29.8493 15.5226L26.5355 12.2226ZM24.748 26.1239V20.6239C24.748 19.8677 25.3668 19.2489 26.123 19.2489C26.8793 19.2489 27.498 19.8677 27.498 20.6239V27.4989C27.498 29.0114 26.2605 30.2489 24.748 30.2489H5.49805C3.98555 30.2489 2.74805 29.0114 2.74805 27.4989V8.24894C2.74805 6.73644 3.98555 5.49894 5.49805 5.49894H11.0255C11.7818 5.49894 12.4005 6.11769 12.4005 6.87394C12.4005 7.63019 11.7818 8.24894 11.0255 8.24894H6.87305C6.1168 8.24894 5.49805 8.86769 5.49805 9.62394V26.1239C5.49805 26.8802 6.1168 27.4989 6.87305 27.4989H23.373C24.1293 27.4989 24.748 26.8802 24.748 26.1239ZM8.96301 24.7489H21.3105C21.8743 24.7489 22.2043 24.1026 21.8605 23.6626L18.3543 19.0014C18.093 18.6301 17.543 18.6301 17.268 18.9876L14.0368 23.1401L11.8918 20.5551C11.6168 20.2114 11.0943 20.2251 10.8193 20.5689L8.42676 23.6351C8.06926 24.0889 8.38551 24.7489 8.96301 24.7489ZM17.8731 8.93644C17.8731 10.8339 19.4131 12.3739 21.3106 12.3739C23.2081 12.3739 24.7481 10.8339 24.7481 8.93644C24.7481 7.03894 23.2081 5.49894 21.3106 5.49894C19.4131 5.49894 17.8731 7.03894 17.8731 8.93644Z" fill="white"/>
</svg>
